<?xml version="1.0" standalone="no"?>
<!DOCTYPE svg PUBLIC "-//W3C//DTD SVG 20010904//EN"
 "http://www.w3.org/TR/2001/REC-SVG-20010904/DTD/svg10.dtd">
<svg version="1.0" xmlns="http://www.w3.org/2000/svg"
 width="268.000000pt" height="188.000000pt" viewBox="0 0 268.000000 188.000000"
 preserveAspectRatio="xMidYMid meet">
<metadata>
Created by potrace 1.16, written by Peter Selinger 2001-2019
</metadata>
<g transform="translate(0.000000,188.000000) scale(0.100000,-0.100000)"
fill="#000000" stroke="none">
<path d="M0 940 l0 -940 1340 0 1340 0 0 940 0 940 -1340 0 -1340 0 0 -940z
m1465 184 c16 -20 20 -31 12 -36 -9 -6 -8 -8 1 -8 7 0 17 10 22 23 5 12 9 19
9 14 1 -4 15 -1 31 8 23 12 30 13 30 3 0 -7 -10 -18 -22 -23 -13 -6 -28 -21
-34 -33 -6 -13 -17 -29 -23 -35 -6 -6 -11 -19 -11 -29 0 -11 -5 -15 -15 -12
-10 4 -14 19 -13 53 3 71 -7 91 -47 91 -39 0 -65 -22 -65 -54 0 -13 -7 -30
-16 -37 -12 -9 -15 -24 -11 -51 3 -21 1 -36 -3 -33 -5 3 -11 -4 -15 -15 -12
-38 -22 -20 -19 33 8 102 8 106 -17 126 -30 25 -41 26 -70 2 -21 -17 -22 -22
-12 -65 7 -31 7 -49 0 -53 -5 -3 1 -14 14 -25 13 -11 17 -17 9 -13 -8 4 -6 -1
4 -9 15 -12 16 -16 5 -16 -12 0 -12 -2 1 -10 8 -5 10 -10 3 -10 -6 0 -21 15
-33 33 -18 28 -20 29 -14 7 7 -28 -3 -22 -20 12 -16 31 -40 34 -54 6 -9 -20
-11 -15 -11 35 -1 48 -4 57 -19 57 -40 0 -56 -49 -24 -72 28 -20 42 -52 41
-95 l-1 -38 -9 44 c-5 25 -16 52 -24 60 -15 15 -17 14 -29 -1 -17 -23 -26 -13
-26 28 0 29 -3 33 -32 37 -32 4 -32 4 5 5 33 2 42 10 38 35 0 4 17 7 39 7 33
0 40 3 40 20 0 17 6 20 38 19 31 0 34 -2 15 -9 -50 -20 -49 -64 3 -103 l24
-18 0 86 0 85 75 0 c68 0 75 -2 75 -20 0 -11 5 -20 10 -20 6 0 10 9 10 19 0
24 10 27 67 26 36 -2 49 -7 68 -31z m703 -6 c7 -7 12 -22 12 -34 0 -13 5 -26
10 -29 6 -4 8 -11 4 -16 -6 -11 23 -38 41 -39 7 0 7 3 0 8 -17 12 -14 42 4 42
13 0 14 2 1 9 -8 6 -19 7 -25 4 -5 -4 -1 3 9 15 11 13 31 22 46 22 24 0 29 -5
39 -44 9 -37 32 -63 50 -56 11 5 21 -31 21 -77 0 -29 5 -53 10 -53 23 0 7 -28
-19 -33 -20 -4 -28 -12 -27 -24 0 -11 -5 -17 -16 -17 -10 1 -18 -1 -18 -5 0
-4 -11 -8 -25 -9 -18 -1 -25 3 -25 16 0 23 16 46 27 39 5 -3 9 3 9 14 0 17 -8
19 -101 18 -147 -1 -135 -7 -135 78 0 58 3 73 15 73 8 0 16 8 17 18 0 9 2 22
3 27 2 6 3 16 4 24 1 11 4 11 16 1 12 -10 15 -10 15 4 0 19 11 21 28 4 9 -9
12 -9 12 0 0 7 -10 17 -22 22 -14 5 -17 9 -7 9 8 1 20 -4 27 -11z m-1746 -23
c-3 -16 -1 -17 11 -6 11 9 17 9 22 0 6 -8 10 -8 15 2 5 8 11 -5 15 -35 5 -32
14 -50 27 -57 15 -8 19 -8 14 0 -4 6 -2 11 5 11 8 0 8 4 -1 15 -10 12 -9 15 6
16 17 1 17 2 2 6 -25 6 -22 17 6 32 23 13 67 7 65 -7 -5 -35 3 -72 16 -72 8 0
15 -5 15 -11 0 -6 7 -9 15 -5 17 6 18 -1 19 -81 1 -52 1 -53 -29 -53 -21 0
-26 -3 -16 -9 8 -5 10 -14 6 -21 -6 -10 -4 -11 6 -4 8 5 22 7 33 5 11 -1 16 2
12 8 -5 7 -1 8 10 4 10 -4 20 0 26 10 6 11 21 17 41 16 18 0 26 -3 19 -6 -7
-2 -17 -14 -23 -25 -10 -19 -9 -20 16 -14 22 6 26 4 23 -10 -4 -25 -50 -34
-155 -33 -84 1 -93 3 -93 20 0 14 7 19 25 19 14 0 25 5 25 11 0 5 -4 7 -10 4
-5 -3 -10 1 -10 9 0 14 -17 16 -105 16 -114 0 -124 -5 -106 -51 7 -17 10 -19
10 -6 1 9 6 17 11 17 14 0 13 -13 -2 -28 -24 -24 -38 -13 -38 28 0 22 4 40 8
40 4 0 6 32 4 72 -3 54 -1 74 10 82 18 14 48 104 36 110 -5 2 -3 3 4 2 7 -2
11 -11 10 -21z m1198 2 c-38 -19 -38 -60 -1 -87 33 -23 34 -22 32 25 0 24 1
26 7 11 8 -19 9 -19 14 2 4 15 14 22 30 21 l23 0 -22 -11 c-32 -16 -29 -50 7
-76 l30 -23 0 38 c0 28 3 34 10 23 5 -8 10 -10 10 -4 0 7 16 14 36 16 29 3 39
0 50 -17 8 -12 25 -28 39 -35 22 -12 25 -20 24 -64 l-2 -51 -6 42 c-7 43 -27
76 -41 68 -4 -3 -15 6 -24 20 -11 16 -26 25 -43 25 -24 0 -25 -3 -20 -34 4
-26 1 -39 -14 -52 -14 -12 -18 -26 -14 -41 3 -13 1 -23 -5 -23 -5 0 -10 15
-10 34 0 47 -9 66 -30 66 -25 0 -38 -19 -43 -65 l-4 -40 -1 46 c-1 25 -8 54
-16 65 -13 16 -18 17 -35 7 -30 -19 -31 -18 -31 37 0 61 16 90 50 90 l25 0
-25 -13z m-737 -42 c-18 -8 -33 -21 -33 -29 0 -21 11 -46 21 -46 4 0 19 -10
32 -22 18 -17 22 -28 16 -43 -17 -43 -11 -55 26 -55 38 0 44 15 25 64 -5 14
-6 26 -1 26 5 0 15 -20 22 -45 10 -32 19 -45 32 -45 11 0 15 -4 11 -12 -10
-15 23 -37 46 -31 15 4 20 0 20 -16 0 -12 -6 -21 -15 -21 -8 0 -15 5 -15 11 0
6 -7 4 -15 -5 -9 -8 -22 -13 -30 -10 -8 4 -15 1 -15 -5 0 -19 -20 -12 -46 17
-17 17 -24 21 -20 10 4 -15 -1 -18 -34 -18 -22 0 -40 4 -40 10 0 8 41 36 48
32 1 -1 8 -2 15 -2 6 0 -3 8 -22 17 -19 9 -29 19 -23 21 18 6 14 78 -5 97 -16
16 -18 16 -35 -5 -18 -22 -18 -21 -18 49 l0 71 43 0 42 -1 -32 -14z m983 -219
c-2 -11 2 -30 10 -40 14 -19 14 -19 14 1 0 20 24 39 44 34 5 -1 3 6 -4 16 -8
10 -11 15 -7 12 4 -4 27 -3 50 2 23 4 58 4 77 -1 20 -4 26 -9 15 -9 -20 -2
-20 -2 0 -17 11 -8 26 -12 33 -9 10 3 12 0 9 -10 -4 -8 1 -22 11 -31 16 -16
14 -17 -28 -9 -50 9 -112 9 -150 -1 -24 -6 -24 -7 -5 -14 23 -10 -20 -14 -114
-11 -57 1 -87 11 -34 11 18 0 30 5 30 14 0 9 -12 13 -39 12 -40 -2 -43 0 -29
23 8 13 12 13 27 0 13 -10 16 -10 10 -1 -5 9 -3 13 5 11 31 -4 49 2 49 16 0 8
-6 15 -12 16 -7 0 -4 4 7 8 27 11 38 3 31 -23z"/>
</g>
</svg>
