<?xml version="1.0" standalone="no"?>
<!DOCTYPE svg PUBLIC "-//W3C//DTD SVG 20010904//EN"
 "http://www.w3.org/TR/2001/REC-SVG-20010904/DTD/svg10.dtd">
<svg version="1.0" xmlns="http://www.w3.org/2000/svg"
 width="800.000000pt" height="500.000000pt" viewBox="0 0 800.000000 500.000000"
 preserveAspectRatio="xMidYMid meet">
<metadata>
Created by potrace 1.16, written by Peter Selinger 2001-2019
</metadata>
<g transform="translate(0.000000,500.000000) scale(0.100000,-0.100000)"
fill="#000000" stroke="none">
<path d="M665 4938 c3 -88 3 -86 24 -105 24 -20 16 -40 -7 -21 -12 9 -11 6 2
-10 13 -15 26 -20 39 -16 16 5 19 3 14 -11 -4 -9 -7 -24 -7 -32 0 -11 -6 -9
-21 8 -11 13 -18 18 -14 12 3 -7 1 -13 -5 -13 -7 0 -9 8 -5 20 4 12 2 20 -5
20 -8 0 -11 -11 -8 -30 2 -16 0 -31 -5 -33 -5 -1 -2 -11 7 -20 22 -22 2 -23
-40 -3 -16 8 -51 17 -79 20 -27 3 -81 8 -120 11 -38 4 -80 12 -95 17 -14 6
-54 12 -90 14 -36 2 -77 6 -92 9 -15 2 -28 0 -30 -6 -2 -7 -20 -5 -48 6 -25 9
-53 19 -62 22 -17 5 -18 -114 -18 -2396 l0 -2401 4000 0 4000 0 0 2405 0 2406
-52 -7 c-29 -4 -68 -13 -87 -20 -39 -16 -75 -18 -66 -4 4 6 -5 5 -22 -1 -34
-14 -175 -21 -167 -8 3 5 -1 9 -9 9 -14 0 -87 -21 -119 -35 -13 -5 -15 -2 -11
16 5 19 3 21 -12 15 -18 -7 -18 -6 0 14 26 29 16 32 -33 10 -42 -19 -42 -19
-32 0 6 11 18 23 27 28 24 14 25 42 2 42 -25 0 -24 18 3 47 l22 24 -39 -17
c-37 -15 -38 -15 -25 2 14 16 12 17 -23 10 -36 -7 -38 -6 -28 13 6 11 16 23
21 26 6 3 10 10 10 15 0 6 -275 10 -671 10 -629 0 -673 -1 -685 -17 -13 -17
-14 -17 -8 0 3 9 1 17 -5 17 -14 0 -15 -47 -1 -55 6 -3 10 -11 10 -16 0 -13
-35 -7 -36 6 0 6 -3 17 -7 25 -3 8 -8 22 -10 30 -3 8 -6 -1 -7 -20 l-2 -35 -9
32 -10 33 -2519 0 c-1672 0 -2520 -3 -2520 -10 0 -6 -5 -10 -11 -10 -5 0 -7 5
-4 10 3 6 -5 10 -19 10 -18 0 -24 -4 -20 -15 4 -8 2 -15 -4 -15 -5 0 -12 7
-16 15 -4 11 -22 15 -74 15 l-69 0 2 -62z m3035 -428 c6 10 7 -4 3 -37 -4 -38
-2 -53 6 -53 7 0 10 7 7 18 -3 9 -2 23 3 31 12 19 23 -2 26 -53 1 -23 5 -51 9
-63 4 -12 2 -24 -3 -27 -6 -4 -7 -16 -2 -28 4 -12 5 -37 0 -56 -4 -19 -3 -47
3 -63 6 -17 8 -33 5 -36 -3 -3 -9 6 -13 21 -4 16 -14 26 -25 27 -10 1 -23 3
-29 4 -5 1 -12 3 -15 4 -3 0 -7 1 -10 1 -17 0 -52 44 -48 60 5 18 7 18 28 4
15 -9 22 -22 19 -32 -3 -9 1 -6 8 8 7 14 17 28 22 31 10 8 -1 29 -15 29 -5 0
-9 -7 -9 -15 0 -8 -4 -15 -9 -15 -11 0 -2 71 10 85 5 5 9 -3 9 -20 0 -24 2
-27 11 -15 8 13 9 12 7 -4 -2 -10 3 -21 11 -24 10 -3 12 0 8 12 -4 10 -2 26 3
37 8 15 7 19 -4 19 -15 0 -41 63 -32 78 3 5 -1 30 -9 57 -19 62 -18 80 1 35
12 -27 17 -32 24 -20z m1435 -9 c-3 -11 -1 -22 5 -26 15 -9 12 -31 -5 -49 -13
-13 -14 -21 -3 -54 10 -34 16 -39 42 -40 17 0 34 5 38 11 5 8 8 8 8 1 0 -7 11
-9 25 -6 18 3 25 0 25 -11 0 -9 -4 -18 -9 -21 -7 -5 -15 -49 -24 -127 -1 -9
-8 -22 -15 -29 -12 -11 -13 -10 -8 8 4 11 2 23 -3 26 -5 4 -9 -10 -8 -31 1
-31 -2 -37 -16 -35 -10 2 -17 -3 -17 -13 0 -8 5 -15 10 -15 6 0 10 -8 10 -17
0 -15 -2 -16 -10 -3 -8 13 -11 12 -25 -5 -14 -19 -15 -18 -11 20 6 52 15 75
30 75 8 0 13 16 14 40 1 22 -3 40 -8 40 -6 0 -10 -8 -10 -17 -1 -14 -4 -12
-14 7 -15 26 -10 52 5 29 4 -7 10 -11 13 -8 8 8 15 59 8 60 -54 10 -58 6 -53
-56 2 -16 0 -27 -4 -24 -3 4 -8 29 -10 55 -2 27 -8 63 -13 81 -6 17 -8 34 -5
37 3 2 2 10 -2 16 -5 8 -10 8 -20 0 -11 -9 -13 -4 -12 22 2 27 6 33 23 31 13
-1 26 7 34 22 16 30 24 33 15 6z m1389 -373 l29 -11 -24 -18 -24 -18 25 6 25
6 -20 -20 c-11 -12 -22 -20 -25 -19 -3 0 -5 -3 -5 -9 0 -5 3 -9 8 -7 4 1 7 -1
8 -5 0 -5 2 -21 5 -38 5 -42 -2 -60 -20 -46 -7 6 -17 7 -21 3 -5 -4 -6 0 -2
10 8 22 -3 31 -20 16 -10 -8 -17 -8 -25 0 -9 9 -8 12 4 12 9 0 20 5 24 11 5 8
-1 10 -20 7 -14 -3 -26 -1 -26 3 0 8 15 13 33 10 4 0 6 3 5 8 -2 5 6 17 17 25
16 13 10 13 -32 -3 -32 -11 -51 -14 -50 -8 2 11 -5 13 -44 16 -18 1 -20 3 -8
17 9 11 25 15 53 12 23 -2 58 1 80 7 l39 11 -32 13 c-17 8 -28 18 -25 23 3 5
13 6 23 3 9 -4 29 -12 45 -17z m-4225 -83 c24 -19 49 -35 55 -35 7 0 21 -9 31
-20 18 -20 17 -20 -21 -20 -21 -1 -82 -3 -134 -6 -83 -5 -98 -9 -122 -31 -32
-31 -49 -23 -46 22 1 22 -5 41 -17 54 -10 12 -13 21 -7 21 6 0 14 -5 17 -10 4
-6 11 -8 16 -4 6 4 2 14 -10 25 -25 24 -26 26 -3 24 9 -1 43 -18 75 -40 72
-48 84 -42 16 9 -28 21 -48 40 -45 44 4 3 12 0 18 -6 7 -7 20 -12 30 -12 10 0
18 -6 18 -12 0 -9 3 -8 10 2 5 8 12 11 16 7 4 -4 12 -2 19 3 8 7 11 3 11 -12
-1 -12 6 -22 17 -23 18 -3 23 10 8 19 -5 4 -12 0 -14 -6 -4 -9 -6 -10 -6 -1
-1 6 4 15 10 18 7 5 4 14 -8 27 -18 20 -18 21 3 10 12 -6 40 -27 63 -47z
m3600 -2 c-13 -15 -16 -21 -6 -14 14 11 17 11 18 0 1 -8 2 -21 3 -29 2 -21
-22 -43 -39 -36 -8 3 -15 2 -15 -2 0 -4 -14 -8 -31 -7 l-30 0 25 21 c13 12 31
24 38 27 7 2 10 7 7 11 -4 4 -30 -7 -59 -25 -47 -29 -56 -31 -83 -21 -16 6
-34 9 -38 6 -5 -3 -9 0 -9 7 0 8 -4 8 -15 -1 -9 -7 -17 -11 -20 -9 -2 2 15 20
37 38 42 35 74 45 95 29 15 -12 105 11 96 25 -3 5 -2 7 3 4 6 -3 16 -2 24 3
25 15 24 1 -1 -27z m239 22 c53 1 53 1 30 -17 -13 -10 -26 -18 -29 -18 -7 0
-19 -50 -12 -50 3 0 17 8 31 18 15 10 47 28 72 41 41 20 43 20 20 2 -14 -11
-49 -32 -77 -48 -29 -15 -53 -30 -53 -34 0 -17 13 -39 22 -39 6 0 6 6 -1 14
-10 12 -8 17 10 26 18 10 24 9 31 -4 5 -9 14 -16 19 -16 6 0 3 7 -6 16 -15 16
-14 18 12 35 15 11 36 19 45 19 9 0 18 5 20 12 3 8 12 8 35 -2 l30 -14 -35
-24 c-20 -13 -43 -27 -52 -31 -8 -3 -61 -32 -117 -63 -91 -52 -107 -58 -159
-58 l-59 0 35 23 c27 17 35 28 33 47 -1 14 0 19 3 13 8 -17 44 2 44 24 0 10 6
14 20 10 22 -6 23 -5 14 17 -5 13 -9 14 -20 5 -19 -16 -18 5 1 25 17 16 21 41
5 31 -5 -3 -10 -2 -10 3 0 6 7 12 15 16 8 3 15 13 15 23 0 10 3 14 8 8 4 -6
31 -10 60 -10z m-4143 -84 c5 0 11 -4 13 -10 5 -15 -21 -14 -37 2 -10 10 -10
6 -1 -17 8 -22 8 -31 0 -36 -7 -4 10 -21 42 -40 49 -31 56 -56 7 -30 -15 8
-24 9 -32 1 -7 -7 -31 1 -81 27 -109 59 -115 63 -102 78 9 10 16 8 35 -9 15
-14 25 -18 28 -11 2 7 14 9 25 6 17 -4 20 -2 15 12 -4 9 -3 14 2 11 9 -5 24
10 27 28 1 4 2 9 3 12 0 3 11 -1 24 -9 12 -8 26 -15 32 -15z m4418 -15 c-5 -8
-62 -43 -128 -76 -98 -50 -127 -60 -169 -60 -63 0 -60 2 118 93 99 50 134 64
147 56 26 -13 32 -11 24 9 -5 13 -3 14 5 5 8 -7 9 -17 3 -27z m-2722 -23 l2
-38 6 35 c6 34 7 35 59 37 36 1 52 -2 52 -11 0 -7 13 -26 30 -42 27 -27 29
-35 30 -101 0 -76 -13 -100 -37 -68 -7 11 -14 30 -14 44 -1 18 -4 13 -9 -14
l-6 -40 -8 30 c-22 90 -24 92 -25 28 -1 -35 -5 -63 -10 -63 -9 0 -23 36 -34
85 -3 11 -6 0 -7 -25 l-2 -45 -12 45 c-11 45 -31 57 -63 37 -6 -4 -18 0 -26 8
-20 20 -27 19 -28 -2 -1 -10 -5 -1 -10 20 -6 24 -5 45 1 55 8 15 9 15 10 -2 0
-17 2 -17 20 4 11 13 20 29 20 36 0 11 9 15 53 23 4 0 8 -16 8 -36z m-618
-288 c10 -19 27 -20 27 -1 0 20 10 22 173 21 119 0 149 -3 157 -15 12 -20 4
-26 -15 -10 -9 7 -15 8 -15 2 0 -6 -3 -18 -7 -27 -5 -14 -2 -16 15 -11 17 6
21 4 16 -8 -3 -9 -10 -13 -15 -10 -5 3 -6 -10 -3 -28 3 -18 6 -43 6 -55 0 -13
8 -25 19 -28 12 -4 18 -14 16 -28 -1 -14 4 -22 18 -25 11 -2 16 0 10 5 -17 13
-16 51 1 57 12 4 15 2 10 -9 -3 -8 -1 -15 4 -15 14 0 21 18 10 25 -6 4 -7 11
-4 17 4 7 -2 8 -17 3 -13 -4 -28 -8 -33 -9 -13 -2 -26 53 -14 60 5 3 7 13 3
21 -4 13 -3 14 10 3 23 -19 29 -6 15 35 -7 20 -10 39 -7 42 9 8 369 9 374 0 3
-4 11 -3 18 3 8 7 21 7 38 1 16 -6 28 -6 35 1 6 6 27 7 52 3 26 -4 38 -10 30
-15 -10 -6 -9 -9 1 -12 11 -4 11 -11 -3 -34 -19 -32 -38 -43 -38 -21 0 9 5 17
11 19 5 2 7 11 4 21 -9 21 -25 12 -25 -14 0 -17 -26 -26 -62 -20 -18 3 -6 -17
12 -22 12 -3 18 -1 14 5 -4 6 -1 9 6 6 27 -9 21 -28 -10 -35 -35 -7 -36 -8
-44 -78 -5 -49 -5 -49 10 -22 8 15 18 27 23 27 4 0 8 6 8 14 0 8 -6 12 -14 9
-7 -3 -13 1 -13 10 0 11 45 37 64 37 6 0 -1 -48 -8 -59 -7 -11 -4 -13 12 -9
15 4 20 2 16 -5 -5 -8 -2 -7 7 1 7 6 21 12 31 12 12 0 18 8 18 25 0 18 -4 23
-15 19 -8 -4 -15 -1 -15 6 0 7 -7 10 -15 6 -12 -4 -13 -2 -2 14 6 11 17 18 24
16 14 -6 23 16 23 60 0 38 -5 37 120 35 41 0 137 -1 213 -1 l137 -1 0 -23 c0
-14 -3 -26 -7 -29 -5 -2 -2 -2 5 0 8 1 12 -5 11 -15 -3 -32 1 -41 15 -36 7 3
16 -2 19 -10 4 -9 1 -16 -5 -16 -6 0 -3 -9 7 -20 21 -23 11 -27 -11 -5 -21 20
-34 19 -34 -4 0 -11 12 -25 28 -34 33 -16 66 -9 53 12 -9 14 -3 51 8 51 17 0
62 -38 52 -44 -6 -4 -11 -2 -11 5 0 7 -3 9 -7 5 -13 -13 -9 -30 11 -47 17 -14
17 -16 2 -31 -10 -10 -12 -19 -6 -23 5 -3 10 -15 10 -26 0 -10 5 -19 12 -19 6
0 8 -3 5 -6 -4 -4 -13 -1 -22 6 -8 7 -15 8 -15 2 0 -6 -14 -5 -37 3 -43 14
-65 48 -56 84 4 17 2 22 -8 19 -8 -3 -14 -16 -14 -30 -1 -14 -6 -32 -13 -40
-14 -17 -6 -29 14 -21 20 7 44 -20 33 -38 -7 -12 -9 -11 -9 2 0 9 -8 20 -17
24 -15 5 -16 4 -5 -6 6 -7 12 -17 12 -21 0 -10 -37 -5 -47 7 -5 4 -2 5 5 1 6
-4 12 -3 12 3 0 19 -19 21 -39 5 -20 -17 -19 -18 12 -47 18 -17 23 -24 12 -16
-19 13 -19 13 -4 -6 9 -11 14 -27 11 -35 -4 -12 -2 -13 9 -2 8 7 14 18 14 25
0 7 11 11 28 9 22 -3 30 1 34 17 3 12 9 21 14 21 5 0 6 -6 4 -13 -3 -6 3 -17
14 -24 16 -10 22 -8 40 13 18 21 19 24 4 24 -14 0 -13 3 5 16 13 9 21 22 18
29 -2 7 5 16 17 20 20 6 19 7 -11 16 -28 8 -31 12 -22 29 13 25 21 26 14 3 -5
-15 -4 -15 5 -3 7 10 6 19 -3 30 -15 16 -19 70 -5 70 4 0 4 13 -1 30 -5 16 -6
39 -3 51 4 14 0 25 -11 31 -42 24 -5 28 233 26 l249 -1 -5 -36 c-3 -25 -2 -32
5 -22 13 18 44 7 36 -14 -3 -8 -1 -15 5 -15 6 0 11 -7 11 -15 0 -22 -15 -18
-33 8 -8 12 -18 19 -22 15 -11 -10 5 -49 17 -42 15 10 28 -17 15 -31 -7 -7
-18 -10 -24 -8 -9 3 -13 -4 -13 -21 0 -17 6 -27 18 -28 62 -5 71 -4 64 6 -4 6
-7 21 -7 34 -1 18 3 21 20 16 11 -4 23 -12 27 -18 4 -6 8 -7 8 -2 0 5 7 3 15
-4 13 -11 14 -10 9 4 -4 11 0 16 12 17 17 1 17 2 2 6 -11 3 -18 14 -18 29 0
19 -5 24 -24 24 -48 0 -76 24 -38 33 11 3 6 7 -16 12 -23 5 -31 12 -27 22 4
11 1 13 -11 9 -10 -4 -14 -1 -11 6 5 18 239 17 245 0 5 -15 23 -16 20 -1 -7
28 23 18 36 -12 15 -35 10 -73 -8 -62 -6 4 -5 0 2 -9 18 -22 6 -69 -16 -61
-12 4 -14 3 -7 -4 6 -6 25 -13 44 -17 l34 -6 -23 20 c-22 19 -21 35 2 35 15 0
17 94 1 97 -8 2 -9 8 -4 17 10 15 82 18 104 4 17 -10 47 -11 47 -1 0 4 6 8 14
8 17 0 28 -37 12 -44 -6 -2 -3 -5 7 -5 20 -1 23 -27 5 -34 -7 -3 -4 -6 8 -6
11 -1 21 -8 21 -16 0 -8 -2 -13 -5 -10 -3 2 -13 0 -22 -5 -20 -11 -34 9 -24
35 4 8 2 15 -4 15 -5 0 -13 -7 -16 -16 -3 -8 -10 -13 -15 -10 -5 3 -14 -1 -20
-8 -9 -11 -9 -16 0 -21 6 -4 15 -2 19 5 10 15 30 4 30 -16 0 -11 6 -13 22 -9
17 6 20 4 15 -9 -6 -14 -1 -18 19 -15 4 0 11 -5 15 -13 7 -10 9 -10 9 0 0 7 5
10 10 7 6 -4 -3 -19 -21 -36 -36 -33 -39 -35 -39 -13 0 8 4 13 9 10 5 -3 14 0
20 8 9 10 8 15 -3 19 -18 7 -48 -24 -38 -40 4 -6 7 -34 7 -61 0 -38 3 -48 12
-40 7 5 10 21 7 37 -4 18 1 35 14 51 l21 25 21 -22 21 -23 -25 0 c-28 0 -43
-27 -18 -33 9 -2 25 3 35 11 11 10 17 11 17 3 0 -6 -7 -14 -15 -17 -8 -4 -15
-12 -15 -20 0 -8 -5 -14 -11 -14 -5 0 -7 -5 -3 -12 4 -7 9 -49 10 -94 1 -45 5
-87 9 -94 4 -7 -4 -4 -19 5 -24 16 -39 54 -16 40 14 -9 12 9 -2 23 -10 10 -10
14 0 21 14 8 6 41 -10 41 -6 0 -7 -7 -4 -16 3 -8 2 -12 -4 -9 -6 3 -10 -1 -10
-10 0 -12 -5 -15 -17 -11 -17 6 -17 5 0 -8 17 -13 24 -32 8 -22 -5 3 -11 -7
-13 -23 -3 -21 -1 -28 9 -24 7 3 10 9 7 14 -3 5 2 6 11 3 9 -4 15 -14 13 -23
-1 -9 1 -22 5 -28 5 -8 3 -13 -6 -13 -7 0 -14 -6 -14 -14 0 -8 6 -12 15 -9 11
5 12 2 4 -14 -9 -15 -7 -22 10 -32 15 -9 18 -19 13 -38 -8 -34 -66 -86 -80
-72 -7 7 -5 13 5 20 11 7 8 8 -12 3 -18 -4 -26 -2 -25 8 2 55 -18 78 -51 58
-15 -9 -14 -10 6 -16 12 -3 22 -13 22 -21 0 -10 -6 -12 -19 -8 -27 8 -34 -9
-10 -25 20 -15 27 -52 8 -48 -7 2 -15 -10 -20 -26 -7 -24 -4 -33 13 -48 19
-16 23 -17 38 -3 10 9 24 13 35 9 16 -6 45 -10 103 -13 18 -1 23 -6 20 -23 -3
-20 -12 -25 -67 -34 -36 -7 -71 -10 -78 -7 -7 3 -13 0 -13 -6 0 -8 -5 -9 -19
-1 -16 8 -21 6 -27 -13 -4 -12 -7 -28 -6 -34 2 -7 -2 -13 -9 -13 -6 0 -9 -7
-5 -15 3 -9 -3 -19 -14 -25 -16 -8 -20 -8 -20 4 0 8 -3 21 -6 29 -3 8 2 22 11
31 10 10 12 16 5 16 -7 0 -9 7 -6 16 4 10 2 13 -6 8 -7 -5 -9 -2 -5 9 3 9 0
18 -9 21 -8 3 -14 9 -13 13 1 4 1 17 0 28 -1 15 -4 16 -10 7 -6 -10 -10 -10
-20 2 -7 8 -9 21 -5 27 5 9 2 10 -9 6 -13 -5 -17 -1 -17 18 0 29 7 31 31 9 16
-14 18 -14 29 6 10 18 9 24 -1 31 -8 4 -18 4 -23 -1 -25 -25 -102 -1 -91 27 3
9 0 20 -7 25 -20 12 -31 9 -25 -7 4 -8 1 -17 -5 -21 -7 -4 -8 -3 -4 4 5 8 0
12 -13 12 -12 0 -21 -7 -21 -16 0 -9 -5 -12 -11 -8 -7 4 -9 21 -5 48 4 22 7
56 6 74 -1 35 15 44 23 12 3 -11 12 -20 21 -20 9 0 16 -4 16 -10 0 -5 9 -10
20 -10 11 0 20 -7 20 -15 0 -17 55 -76 64 -68 3 4 6 1 6 -5 0 -6 7 -9 15 -6 8
4 15 10 15 16 0 5 -4 6 -10 3 -5 -3 -21 5 -35 19 -14 15 -30 26 -34 26 -12 0
-21 39 -11 45 5 3 21 0 36 -5 19 -8 30 -8 38 0 16 16 -14 32 -32 18 -14 -12
-32 4 -32 28 0 7 -11 14 -25 16 -21 5 -25 2 -20 -13 4 -12 1 -21 -10 -25 -23
-9 -27 -1 -15 32 9 21 8 38 0 65 l-12 36 -23 -23 c-26 -26 -35 -46 -41 -96 -3
-23 -1 -38 6 -38 5 0 10 -4 10 -9 0 -5 -14 -8 -32 -7 -28 1 -32 -2 -33 -24 0
-16 -7 -26 -20 -28 -16 -4 -17 -2 -8 10 7 8 8 19 4 27 -7 11 -10 11 -17 0 -23
-37 -34 -63 -34 -86 0 -13 -4 -21 -10 -18 -10 6 -8 40 3 51 4 4 7 18 7 31 0
13 5 23 10 23 6 0 10 7 10 15 0 8 -3 15 -6 15 -11 0 -34 -29 -34 -44 0 -11 -9
-16 -30 -16 -22 0 -28 -4 -24 -15 7 -17 -11 -21 -21 -5 -4 6 -12 7 -18 3 -30
-19 -61 -3 -38 20 6 6 11 20 11 30 0 16 3 17 15 7 8 -6 19 -9 26 -5 6 4 15 1
20 -6 6 -10 9 -7 9 10 0 14 5 39 12 57 10 30 9 35 -11 51 -20 17 -22 23 -13
55 6 20 6 41 1 49 -11 18 -11 32 0 25 5 -3 12 10 15 29 7 34 26 50 26 21 0 -7
7 -19 15 -26 21 -17 19 -36 -6 -70 -20 -27 -21 -31 -7 -60 13 -27 17 -29 28
-15 7 8 21 15 32 15 17 0 18 3 8 15 -7 9 -10 27 -7 43 3 15 2 34 -3 42 -11 18
-3 31 15 24 8 -4 12 -11 8 -17 -4 -6 -8 -23 -10 -38 -3 -28 12 -33 38 -12 8 5
20 12 28 15 11 3 9 9 -8 25 -14 13 -17 21 -9 20 41 -1 49 3 43 26 -6 22 -6 22
10 2 14 -17 17 -18 25 -5 14 22 12 33 -4 27 -10 -4 -12 0 -8 16 3 12 7 16 10
9 6 -19 22 -14 22 8 0 11 -4 20 -10 20 -5 0 -10 5 -10 11 0 8 5 8 15 -1 8 -7
15 -18 15 -25 0 -7 7 -18 15 -25 10 -9 15 -9 15 -1 0 6 -4 11 -10 11 -5 0 -10
7 -10 16 0 8 5 12 11 8 7 -4 10 1 7 12 -5 27 -68 32 -68 5 0 -10 -8 -26 -19
-35 -16 -15 -19 -15 -24 -1 -4 8 -14 15 -24 15 -22 1 -55 24 -46 33 3 4 0 13
-6 21 -8 10 -9 16 -1 21 15 9 12 25 -5 25 -8 0 -15 -7 -15 -15 0 -8 -11 -17
-25 -21 -25 -6 -31 -15 -18 -27 3 -4 12 1 19 11 17 23 32 6 16 -18 -10 -17 -9
-23 8 -40 10 -10 15 -22 10 -25 -5 -3 -11 -1 -15 5 -4 6 -11 8 -16 5 -5 -3 -6
0 -3 8 3 8 -2 17 -10 20 -10 4 -16 1 -16 -7 0 -8 -7 -17 -16 -20 -12 -4 -14
-1 -9 14 5 15 1 22 -16 28 -19 7 -20 10 -6 15 21 8 22 37 2 37 -8 0 -15 9 -15
19 0 15 -5 19 -21 16 -30 -6 -36 -14 -19 -26 13 -8 12 -12 -5 -25 -14 -11 -16
-18 -8 -21 10 -4 10 -8 -1 -19 -15 -15 -46 -9 -46 9 0 6 -2 8 -5 5 -3 -2 0
-19 6 -36 7 -21 18 -32 30 -32 20 0 23 -13 9 -45 -8 -18 -9 -17 -9 8 -1 38
-25 30 -27 -9 -1 -29 -19 -74 -30 -74 -4 0 -3 12 0 26 4 15 2 32 -5 40 -9 11
-8 18 2 32 13 15 12 16 -3 3 -10 -7 -24 -11 -33 -8 -8 4 -17 2 -20 -3 -4 -6 1
-10 9 -10 9 0 16 -5 16 -10 0 -6 -10 -8 -23 -5 -17 5 -24 2 -24 -9 0 -11 6
-14 18 -11 20 7 46 -29 29 -40 -6 -3 -13 1 -16 9 -3 9 -11 16 -17 16 -8 0 -7
-4 1 -12 9 -9 7 -14 -6 -24 -15 -12 -14 -12 7 -7 17 4 22 3 17 -5 -10 -16 7
-15 22 0 10 10 17 10 34 -1 18 -11 20 -11 14 4 -4 11 -2 15 6 13 17 -6 16 -18
-4 -47 -16 -22 -17 -23 -49 -7 -40 20 -65 20 -73 1 -3 -8 -12 -15 -20 -15 -7
0 -17 -11 -20 -25 -4 -14 -13 -25 -22 -25 -12 0 -13 -4 -4 -20 10 -18 7 -24
-12 -21 -5 0 -8 -3 -8 -9 0 -5 -7 -10 -16 -10 -8 0 -12 -5 -9 -10 3 -6 16 -8
28 -5 32 8 61 -16 53 -43 -9 -28 -36 -29 -43 -2 -6 24 -23 27 -23 4 0 -18 -22
-14 -28 6 -3 7 0 10 7 6 6 -4 11 -1 11 8 0 9 -3 16 -7 16 -16 0 -33 53 -22 66
15 19 -27 40 -47 23 -11 -9 -14 -9 -14 0 0 7 -4 9 -10 6 -5 -3 -10 -14 -10
-25 0 -18 -25 -34 -41 -25 -4 3 -4 16 1 29 10 28 2 68 -13 59 -6 -4 -8 2 -5
15 7 26 -7 29 -21 5 -5 -10 -13 -15 -17 -11 -10 11 46 53 68 51 35 -2 38 -3
38 -18 0 -9 9 -15 21 -15 21 0 51 -23 44 -34 -3 -3 -2 -4 2 -1 3 3 16 -3 27
-12 21 -18 21 -18 3 3 -9 12 -15 28 -12 37 4 8 1 18 -5 22 -8 5 -8 11 1 21 9
11 8 14 -5 14 -9 0 -16 -7 -16 -15 0 -19 -7 -19 -26 0 -14 13 -14 16 -1 21 9
3 13 13 10 25 -3 10 0 19 6 19 6 0 11 5 11 10 0 29 -46 -18 -64 -65 -2 -5 -7
-7 -11 -3 -4 4 -2 14 5 23 20 24 -1 17 -60 -21 -42 -26 -55 -40 -55 -60 -1
-17 6 -26 22 -30 18 -5 21 -11 17 -34 -4 -15 -1 -31 5 -34 16 -10 13 -44 -5
-54 -10 -6 -14 -20 -12 -43 5 -60 26 -39 43 44 3 15 10 27 15 27 22 0 -22
-125 -48 -135 -8 -3 -23 2 -33 11 -20 18 -39 11 -39 -14 0 -9 -9 -32 -21 -51
l-21 -34 -22 23 c-15 17 -21 34 -19 59 3 39 -2 32 -31 -42 -17 -42 -43 -58
-60 -35 -14 19 -95 18 -118 -2 -10 -8 -18 -23 -18 -32 0 -10 -19 -39 -41 -63
-65 -70 -94 -55 -43 21 14 21 31 44 38 49 10 8 8 21 -10 60 -23 48 -23 49 -33
23 -17 -44 -70 -44 -71 1 -1 9 -14 -11 -31 -44 -37 -75 -86 -122 -144 -137
-35 -9 -50 -20 -65 -46 -13 -21 -27 -32 -37 -30 -26 5 -26 23 2 57 15 17 23
31 19 31 -4 0 -3 5 4 12 8 8 12 49 12 118 0 58 5 137 10 175 6 39 11 79 13 90
1 15 -4 20 -22 20 -14 0 -26 6 -28 12 -3 7 9 10 32 9 27 -1 39 4 47 17 8 15 7
18 -2 12 -10 -6 -11 -1 -6 21 11 43 46 56 46 17 0 -9 6 -13 15 -9 16 6 15 -6
-1 -61 -3 -13 -2 -23 3 -23 5 0 9 -9 9 -20 0 -13 -6 -20 -16 -18 -8 2 -15 13
-14 26 1 36 -13 25 -20 -15 -9 -56 -7 -113 3 -110 5 1 8 -2 8 -8 -1 -5 -7 -9
-13 -9 -7 1 -14 -35 -18 -100 -4 -55 -9 -115 -12 -133 l-6 -32 38 10 c22 6 54
25 72 42 36 35 92 142 92 177 0 19 34 59 51 60 4 0 4 -29 1 -65 -2 -36 -2 -65
1 -65 10 0 37 69 37 93 0 25 28 57 49 57 14 -1 14 -2 -1 -14 -10 -7 -18 -24
-18 -37 0 -30 46 -129 59 -129 17 0 34 41 22 53 -7 7 -13 4 -19 -13 -8 -22 -9
-20 -19 18 -12 45 -9 52 19 52 19 0 21 10 12 59 -4 17 -13 31 -20 31 -8 0 -16
11 -20 24 -4 16 -11 23 -20 19 -8 -3 -14 0 -14 7 0 6 -4 9 -9 6 -5 -4 -12 0
-15 6 -3 7 -3 3 0 -9 6 -26 2 -28 -27 -12 -11 5 -17 14 -14 20 10 16 -7 10
-20 -7 -10 -15 -15 -13 -43 17 -18 19 -32 43 -32 55 0 11 -3 24 -7 28 -4 4 -6
22 -5 41 3 30 1 33 -17 28 -17 -4 -20 -2 -15 12 4 9 16 21 28 25 l21 9 -22 7
c-25 7 -27 12 -13 34 8 13 10 13 10 1 0 -13 2 -13 13 -2 10 11 10 14 0 18 -7
3 -13 14 -12 26 0 21 1 21 9 2 11 -25 12 2 1 29 -6 16 -10 10 -21 -30 -7 -27
-14 -62 -15 -78 -2 -34 -32 -59 -60 -52 -10 3 -27 -2 -36 -10 -16 -15 -17 -14
-13 8 2 12 -4 2 -13 -24 -21 -55 -26 -61 -58 -65 -17 -3 -25 2 -30 17 -4 11
-11 18 -16 15 -5 -4 -9 -2 -9 3 0 6 6 12 14 15 9 4 12 15 8 32 -6 36 -17 21
-35 -47 -12 -51 -12 -58 1 -58 8 0 12 6 9 14 -9 23 4 26 24 7 15 -14 17 -23
10 -42 l-10 -24 -1 25 -1 25 -15 -29 c-9 -15 -14 -39 -11 -52 2 -13 -2 -32 -9
-41 -12 -17 -13 -17 -19 0 -4 9 -5 24 -2 32 4 8 2 17 -4 20 -5 4 -7 11 -4 16
12 19 -13 8 -26 -12 -9 -12 -20 -18 -30 -14 -23 9 -52 80 -43 107 5 13 8 26 9
30 0 12 10 16 50 19 30 2 39 0 37 -11 -3 -11 0 -11 12 0 20 16 20 30 1 30 -8
0 -15 5 -15 10 0 6 4 10 8 10 5 0 7 14 4 30 -3 18 0 30 7 30 16 0 13 37 -5 65
-14 22 -14 25 -1 25 10 0 14 9 13 25 0 14 -4 25 -8 25 -4 0 -7 10 -5 23 1 14
-3 21 -12 19 -10 -2 -12 5 -8 24 3 20 0 28 -14 31 -14 4 -18 11 -14 24 4 11 2
19 -4 19 -6 0 -11 9 -11 20 0 16 7 20 33 21 l32 1 -30 7 c-42 10 -69 2 -55
-15 8 -9 8 -18 1 -33 -9 -16 -7 -23 15 -40 14 -11 23 -25 19 -30 -3 -6 3 -19
15 -31 11 -11 16 -20 10 -20 -5 0 -11 -8 -11 -17 -1 -17 -2 -17 -6 0 -2 9 -12
17 -21 16 -11 0 -12 -2 -4 -6 6 -2 12 -11 12 -19 0 -8 5 -14 10 -14 6 0 10 -4
10 -10 0 -5 -7 -7 -15 -4 -11 5 -13 2 -9 -10 3 -9 10 -16 16 -16 5 0 2 -7 -6
-16 -24 -23 -20 -37 9 -30 14 4 25 2 25 -4 0 -5 -3 -9 -7 -9 -22 4 -32 -3 -27
-16 8 -21 -17 -74 -33 -68 -19 8 -16 23 10 46 l22 19 -22 -6 c-19 -6 -23 -3
-23 12 0 11 -6 23 -12 26 -10 5 -10 7 0 12 6 3 10 10 6 15 -3 5 0 9 6 9 6 0 8
5 4 11 -4 8 -9 7 -15 -2 -4 -7 -12 -10 -16 -5 -4 4 1 14 11 22 18 13 18 15 0
13 -12 -1 -33 37 -34 60 0 35 -9 21 -13 -20 -2 -29 -7 -35 -32 -39 -21 -4 -25
-7 -14 -12 9 -3 22 -2 30 3 22 14 24 11 24 -31 0 -29 -4 -40 -15 -40 -9 0 -11
-3 -4 -8 22 -15 36 -94 25 -141 -1 -2 -9 7 -19 19 l-19 23 1 -45 c1 -43 2 -45
21 -32 31 22 48 19 33 -7 -11 -17 -10 -22 5 -33 9 -7 17 -17 17 -21 0 -4 -6
-2 -14 4 -17 14 -61 -3 -50 -20 3 -5 2 -18 -2 -27 -4 -9 -8 -19 -9 -22 -9 -26
-19 -40 -29 -40 -6 0 -17 -9 -24 -20 -7 -11 -16 -20 -22 -20 -15 0 -31 73 -19
85 7 7 8 5 4 -7 -7 -17 9 -20 32 -5 6 4 19 4 30 0 17 -6 17 -6 1 10 -9 9 -22
17 -28 17 -7 0 -9 7 -6 17 4 9 1 20 -6 25 -22 13 -30 9 -23 -12 4 -11 2 -20
-4 -20 -6 0 -11 5 -11 11 0 5 -10 3 -22 -5 -31 -22 -48 -20 -48 5 0 16 5 20
19 16 14 -3 21 2 25 19 6 21 10 23 26 14 29 -15 15 14 -15 34 -29 19 -57 20
-73 4 -7 -7 -12 -8 -12 -4 0 5 -6 3 -14 -3 -12 -10 -17 -8 -25 7 -16 30 11 49
50 35 16 -6 27 -7 23 -2 -3 5 3 9 13 10 13 0 11 4 -9 12 -21 10 -24 16 -17 30
13 22 30 22 23 0 -5 -15 -4 -16 5 -3 18 25 13 43 -10 37 -13 -3 -19 -1 -16 6
3 7 10 11 16 9 6 -1 11 2 11 7 0 5 -16 11 -35 13 -22 2 -31 0 -25 -6 6 -6 5
-16 -1 -27 -5 -10 -7 -30 -3 -44 5 -21 3 -24 -12 -18 -12 5 -14 8 -5 11 10 3
11 6 1 12 -7 4 -14 22 -16 40 -2 19 -6 35 -9 38 -2 3 -1 12 4 21 5 9 11 29 15
45 6 26 6 27 -9 12 -25 -25 -38 -21 -34 11 0 3 -6 10 -15 15 -9 5 -16 16 -16
24 0 8 5 12 10 9 16 -10 12 11 -5 25 -11 9 -15 9 -15 1 0 -8 -9 -7 -28 3 -23
12 -29 12 -29 2 0 -7 7 -13 15 -12 8 1 17 -5 20 -13 3 -10 -2 -13 -22 -9 -14
3 -26 1 -26 -3 0 -5 5 -9 10 -9 6 0 10 -7 10 -15 0 -8 5 -15 12 -15 6 0 3 -6
-7 -14 -11 -8 -16 -19 -12 -30 8 -21 -9 -21 -22 1 -9 17 -12 16 -35 -6 -14
-14 -29 -21 -33 -18 -3 4 -1 7 6 7 7 0 9 5 6 10 -10 16 -25 12 -25 -7 0 -15
-2 -15 -9 -4 -7 10 -4 19 7 28 20 15 36 17 27 3 -15 -24 16 -7 34 19 27 37 27
37 -10 45 -17 3 -28 10 -24 15 3 5 0 13 -6 16 -17 11 -23 -3 -9 -21 9 -10 10
-18 3 -22 -6 -4 -13 -17 -17 -29 -4 -13 -15 -23 -26 -23 -10 0 -25 -7 -34 -15
-20 -20 -33 -19 -41 5 -8 24 -23 26 -32 5 -7 -20 6 -33 16 -16 6 9 10 7 14 -8
3 -12 0 -21 -9 -23 -10 -2 -11 -7 -3 -18 8 -11 12 -12 16 -2 7 17 24 15 17 -3
-4 -9 3 -16 20 -21 24 -6 25 -8 10 -19 -13 -9 -15 -20 -10 -48 6 -31 4 -36 -9
-31 -11 5 -15 0 -15 -17 0 -13 4 -19 8 -14 4 6 14 10 22 10 8 0 14 6 12 14 -3
12 0 12 12 1 24 -19 19 0 -6 27 -18 20 -19 23 -5 23 9 0 17 -4 17 -10 0 -5 9
-10 19 -10 15 0 18 5 14 23 -4 19 -3 20 7 4 6 -10 8 -27 4 -40 -6 -19 -8 -48
-5 -89 1 -8 7 -6 19 5 15 15 15 19 2 27 -8 5 -11 12 -7 16 3 4 13 1 22 -6 17
-14 17 -15 32 21 11 25 2 56 -20 70 -5 4 -7 16 -4 28 3 12 0 21 -6 22 -7 0 -2
4 11 9 12 5 22 16 22 25 0 21 20 19 22 -2 0 -10 2 -24 2 -31 1 -7 7 -16 13
-20 7 -5 9 -13 4 -21 -5 -8 -5 -27 0 -43 9 -32 -5 -83 -20 -74 -5 3 -14 0 -20
-8 -9 -10 -8 -16 4 -26 8 -7 18 -30 21 -52 4 -24 10 -35 14 -27 5 6 15 9 23 6
9 -3 18 -1 20 6 2 7 8 9 12 5 4 -4 2 -14 -5 -23 -7 -9 -10 -18 -6 -22 3 -3 6
-1 6 7 0 10 3 10 15 0 26 -21 17 -30 -30 -28 -30 2 -44 6 -41 14 3 8 -4 11
-21 9 -17 -2 -27 3 -30 14 -5 20 -42 45 -51 36 -4 -4 1 -13 12 -20 19 -15 15
-52 -5 -40 -6 4 -8 13 -5 21 3 8 4 14 2 14 -3 0 -12 3 -22 7 -14 5 -16 2 -12
-15 4 -15 2 -22 -9 -22 -8 0 -13 8 -12 18 3 37 0 42 -32 35 -29 -6 -30 -5 -18
14 17 27 -4 103 -36 131 l-23 20 -13 -24 c-9 -19 -10 -32 -1 -61 13 -41 10
-48 -14 -39 -9 4 -14 14 -12 24 4 12 -1 17 -19 17 -12 0 -24 -3 -24 -7 -1 -5
-3 -12 -4 -18 -1 -5 -3 -14 -4 -20 0 -5 -21 -8 -48 -5 -27 2 -40 2 -30 -1 9
-3 17 -10 17 -16 0 -10 27 -6 64 8 12 5 16 0 16 -20 0 -16 -6 -26 -15 -26 -8
0 -15 -6 -15 -14 0 -8 -8 -17 -17 -20 -17 -7 -33 9 -33 32 0 7 -5 10 -10 7 -6
-4 -7 -12 -3 -18 4 -7 6 -19 5 -28 -2 -9 4 -19 12 -22 17 -7 86 54 86 76 0 19
55 38 70 23 8 -8 10 -7 5 4 -3 9 1 24 9 35 13 18 14 13 14 -51 0 -40 3 -77 6
-83 4 -6 3 -11 -2 -11 -5 0 -12 10 -15 21 -5 20 -7 20 -22 5 -19 -18 -29 -21
-19 -5 7 12 -15 31 -28 23 -4 -3 -8 -16 -8 -29 0 -18 -7 -26 -22 -29 -40 -7
-68 -5 -68 5 0 6 -4 7 -10 4 -15 -10 -12 -52 6 -70 9 -9 13 -23 9 -33 -6 -16
-7 -16 -20 1 -13 18 -13 18 -20 -2 -6 -19 -7 -19 -35 -3 -22 12 -30 25 -30 45
0 32 -23 36 -60 10 -21 -15 -23 -15 -17 0 3 8 1 18 -6 20 -7 2 -8 8 -4 13 4 5
12 2 17 -5 7 -12 14 -9 40 12 17 15 28 27 25 27 -4 0 -3 6 2 13 5 6 6 28 2 47
-3 19 -7 31 -8 25 0 -5 -14 -11 -31 -12 -22 -2 -28 1 -23 12 3 8 1 16 -3 16
-5 1 -24 3 -43 5 -19 2 -42 10 -50 18 -9 8 -20 15 -26 15 -5 0 -11 5 -14 12
-2 8 2 10 13 6 11 -4 16 -1 16 11 0 10 5 23 12 30 9 9 9 12 0 12 -6 0 -20 -10
-32 -22 -23 -25 -25 -21 -7 15 8 15 13 52 12 89 -1 35 2 73 6 86 5 13 5 22 -1
22 -6 0 -10 6 -10 14 0 8 -7 17 -16 20 -8 3 -12 11 -9 17 5 6 11 5 19 -6 12
-17 51 -11 40 6 -3 5 -8 7 -12 5 -4 -2 -13 2 -20 10 -10 11 -8 17 9 33 13 12
17 21 10 26 -13 7 -15 35 -3 35 5 0 9 -6 10 -12 3 -38 11 -52 30 -53 22 -2 38
20 21 30 -5 4 -7 11 -4 16 4 5 2 9 -3 9 -6 0 -8 9 -5 19 3 11 11 17 18 15 7
-3 15 4 18 15 5 21 27 30 27 11 0 -5 7 -10 15 -10 23 0 18 20 -9 30 -13 5 -27
15 -30 22 -3 7 -5 4 -3 -7 5 -27 -15 -45 -36 -33 -24 13 -21 28 6 29 17 1 18
2 4 6 -20 5 -17 30 3 25 11 -3 11 0 0 12 -9 12 -9 16 -1 16 7 0 9 5 6 10 -10
15 21 23 44 11 13 -7 22 -8 26 -1 4 6 89 10 223 10 149 0 212 -3 202 -10 -13
-9 -12 -12 5 -25 17 -13 18 -18 7 -36 -7 -11 -10 -30 -6 -41 5 -17 8 -18 14
-7 11 19 16 92 7 106 -9 14 21 20 83 16 27 -2 47 -9 53 -18z m-1202 -8 c13
-22 31 -22 27 0 -2 13 7 17 45 20 39 3 47 0 47 -14 1 -17 1 -17 10 -1 9 14 34
17 195 18 122 0 185 -3 185 -10 0 -9 -21 -15 -42 -11 -5 0 -8 -3 -8 -9 0 -5
14 -10 30 -10 30 0 40 -13 19 -26 -6 -3 -15 0 -20 7 -5 8 -9 9 -9 4 0 -6 5
-16 11 -22 8 -8 8 -13 0 -18 -6 -3 -14 0 -17 8 -3 9 -13 13 -25 10 -29 -8 -32
-21 -4 -15 18 3 25 0 25 -12 0 -9 -6 -16 -13 -16 -15 0 -48 -36 -40 -44 3 -3
12 1 20 9 17 17 33 19 33 5 0 -5 -4 -10 -10 -10 -5 0 -10 -7 -10 -15 0 -8 -7
-15 -16 -15 -9 0 -23 -8 -30 -17 -17 -22 -18 -37 -2 -27 7 4 8 3 4 -5 -13 -21
-16 -141 -4 -141 6 0 9 -3 5 -6 -3 -3 -1 -17 4 -31 8 -21 7 -24 -6 -19 -8 3
-15 1 -15 -4 0 -6 6 -10 13 -10 9 0 12 -11 9 -35 -3 -21 -10 -35 -18 -35 -8 0
-14 -9 -14 -19 0 -15 5 -18 23 -14 20 4 20 4 -3 -9 -14 -8 -33 -12 -42 -10
-18 4 -22 12 -33 71 -6 30 -9 32 -22 18 -16 -15 -9 -42 8 -32 5 4 9 -1 9 -9 0
-9 -8 -14 -24 -12 -28 3 -56 28 -56 50 0 22 20 20 21 -1 1 -17 2 -17 6 0 3 10
10 14 16 11 7 -4 9 -4 5 0 -3 4 -9 7 -12 6 -4 0 -20 7 -36 17 -30 17 -39 33
-20 33 6 0 10 5 10 11 0 7 -10 9 -25 7 -13 -3 -24 -2 -23 1 2 23 -4 22 -17 -2
-8 -15 -12 -34 -9 -41 3 -7 -2 -19 -11 -26 -13 -11 -15 -9 -15 9 0 11 -5 21
-11 21 -6 0 -9 -7 -6 -15 7 -18 -6 -27 -27 -19 -9 3 -16 17 -16 31 0 16 4 22
13 17 9 -5 9 -4 1 5 -13 14 -7 51 7 51 5 0 9 -13 9 -30 0 -16 5 -30 11 -30 16
0 40 28 30 35 -5 3 -10 13 -10 23 -1 9 -1 24 -1 32 -1 24 3 80 6 80 15 0 34
-15 34 -29 1 -14 2 -14 11 1 11 19 59 21 71 4 10 -15 -2 -28 -15 -18 -7 6 -21
6 -34 1 -27 -10 -31 -31 -5 -22 10 3 8 -1 -7 -12 -23 -17 -23 -19 -6 -32 22
-15 59 -18 50 -3 -4 6 -11 8 -16 5 -5 -4 -17 -1 -26 4 -15 9 -13 11 15 12 54
3 57 4 58 19 1 30 15 48 35 43 10 -3 19 0 19 6 0 6 -10 11 -22 12 -13 0 -30 2
-38 4 -8 2 -25 5 -37 7 -11 2 -29 10 -40 18 -16 14 -17 14 -4 -2 12 -16 11
-18 -2 -18 -9 0 -22 7 -30 15 -8 8 -17 12 -20 9 -5 -5 -24 8 -75 55 -23 21
-24 24 -9 33 10 5 15 13 12 19 -4 5 0 9 7 9 7 1 1 8 -15 16 -29 16 -61 9 -36
-7 11 -7 9 -10 -9 -15 -21 -6 -21 -7 -5 -20 17 -13 17 -13 -2 -14 -18 -1 -19
-2 -2 -9 10 -4 19 -11 20 -16 1 -6 5 -9 10 -7 12 4 7 -22 -8 -42 -14 -19 -15
-19 -34 -2 -11 10 -26 16 -33 14 -8 -3 -5 -9 10 -17 19 -10 21 -15 12 -26 -14
-17 -50 -3 -50 18 0 7 -9 18 -20 25 -25 16 -25 7 0 -25 11 -14 17 -30 13 -36
-4 -6 -10 -1 -14 11 -12 31 -17 27 -14 -10 1 -18 8 -34 14 -36 8 -3 9 -8 2
-16 -7 -8 -6 -20 3 -38 8 -15 12 -29 9 -32 -12 -12 -21 -81 -12 -92 6 -8 3
-13 -10 -17 -25 -6 -23 -61 4 -80 11 -9 14 -16 7 -21 -7 -4 -7 -15 1 -36 9
-25 16 -29 44 -28 32 1 48 18 18 18 -9 0 -15 6 -13 13 3 18 -12 57 -23 57 -5
0 -9 9 -9 20 0 11 5 20 10 20 6 0 10 -4 10 -9 0 -5 10 -12 23 -16 19 -6 19 -8
5 -12 -10 -2 -18 -8 -18 -12 0 -15 32 -51 41 -46 5 4 12 -1 15 -9 9 -23 26
-19 19 4 -5 16 -2 20 15 20 32 0 19 23 -18 32 -18 5 -32 13 -32 20 0 6 6 5 17
-3 15 -12 16 -12 10 4 -4 12 -1 17 11 17 16 1 16 2 -1 14 -12 9 -14 16 -8 21
6 3 11 11 11 17 0 7 -5 6 -14 -1 -8 -7 -23 -11 -33 -9 -12 2 -17 -2 -15 -14 2
-10 -2 -18 -8 -18 -6 0 -9 4 -5 9 3 5 1 12 -5 16 -17 10 -11 25 10 25 12 0 20
7 20 16 0 10 -6 14 -14 11 -24 -9 -30 24 -12 65 5 11 2 23 -8 33 -18 19 -21
45 -5 45 6 0 9 -7 5 -15 -3 -9 3 -20 14 -27 11 -7 20 -24 20 -38 l1 -25 14 26
c7 14 12 37 11 52 -2 18 1 27 11 27 8 0 12 4 8 10 -3 5 -13 7 -23 4 -14 -5
-15 -4 -2 5 12 9 13 13 2 20 -8 4 -14 12 -13 17 0 11 43 23 56 15 17 -9 45 -8
45 2 0 5 7 4 15 -3 11 -9 12 -16 5 -25 -5 -6 -6 -15 -2 -19 4 -4 7 -19 7 -32
1 -21 -2 -24 -25 -19 -14 3 -37 2 -50 -3 l-24 -9 27 -26 c26 -24 27 -26 10
-39 -23 -17 -30 -63 -8 -54 8 3 15 4 15 2 0 -3 3 -11 6 -20 4 -10 1 -16 -10
-16 -8 0 -14 -6 -12 -12 3 -7 7 -26 11 -42 5 -26 8 -28 41 -21 42 7 74 -1 74
-21 0 -8 5 -14 10 -14 6 0 10 5 10 10 0 6 12 23 27 38 l27 26 -25 6 c-17 4
-20 8 -11 14 8 5 19 3 25 -3 6 -6 20 -11 30 -11 15 0 17 -3 9 -13 -7 -8 -7
-18 -2 -27 5 -8 6 -18 4 -22 -3 -5 0 -7 7 -6 7 2 15 -8 18 -22 6 -26 39 -35
53 -15 4 5 10 6 14 2 4 -4 2 -13 -4 -19 -17 -17 -15 -26 4 -24 9 0 19 -5 21
-11 3 -9 -9 -12 -40 -11 -25 1 -43 6 -41 10 3 4 -7 8 -21 8 -17 0 -29 6 -32
18 -5 19 -43 48 -43 33 0 -6 5 -13 10 -16 6 -3 10 -15 10 -26 0 -15 -5 -19
-19 -14 -14 4 -20 0 -23 -19 -3 -14 -1 -29 5 -35 6 -6 4 -15 -7 -26 -20 -20
-38 -11 -35 18 1 12 -3 33 -8 47 -12 29 -1 50 28 50 11 0 19 5 19 11 0 6 -9 8
-20 4 -11 -4 -20 -2 -20 4 0 6 -9 3 -20 -6 -21 -18 -27 -43 -10 -43 6 0 6 -10
-1 -27 -5 -14 -6 -29 -1 -32 11 -8 23 -41 15 -41 -3 0 -12 8 -19 18 -12 15
-13 15 -14 1 0 -9 -9 -28 -20 -42 -11 -14 -16 -28 -11 -31 5 -3 11 -15 14 -26
4 -16 0 -20 -18 -20 -19 0 -24 8 -32 51 -10 48 -9 50 9 46 18 -5 19 -2 13 36
-4 23 -14 50 -23 60 -16 17 -16 17 -23 -1 -4 -10 -6 -35 -5 -55 1 -20 -2 -37
-7 -37 -5 0 -5 -9 -2 -20 4 -14 2 -20 -8 -20 -31 0 -55 67 -36 99 7 10 9 26 6
35 -7 19 -43 22 -50 4 -4 -10 -7 -10 -18 0 -11 10 -10 12 5 12 17 0 17 1 0 18
-17 17 -67 26 -58 10 3 -4 -1 -8 -9 -8 -29 0 -27 40 5 72 20 20 26 33 18 38
-6 4 -10 11 -9 16 5 19 -13 62 -24 58 -11 -4 -13 5 -17 90 -1 15 7 37 17 48
17 19 17 19 -10 13 -26 -7 -27 -6 -17 21 8 19 8 36 1 57 -13 36 -7 47 25 47
25 0 33 -15 12 -23 -7 -2 -10 -7 -7 -11 13 -14 36 6 46 39 9 27 8 35 -3 39 -8
3 -14 11 -14 19 0 7 -15 21 -32 30 l-33 16 27 0 c35 1 42 14 20 37 -40 43 -61
47 -108 22 -24 -12 -44 -27 -44 -32 0 -5 -7 -3 -15 4 -9 8 -20 9 -27 4 -25
-18 -61 -10 -64 14 -5 26 11 29 25 5 9 -16 10 -16 11 4 0 18 -7 22 -37 26 -23
2 -11 4 30 5 48 2 75 -3 92 -14 23 -15 25 -15 25 -1 0 17 44 22 193 22 64 0
80 -4 88 -18z m-705 -2 c8 -8 22 -11 30 -8 12 4 13 8 3 13 -7 5 27 8 74 8 87
0 98 -3 75 -26 -10 -10 -10 -15 1 -22 11 -6 12 -12 4 -22 -6 -7 -12 -16 -12
-21 -3 -30 -15 -56 -24 -50 -6 4 -8 0 -4 -9 3 -10 -1 -18 -13 -21 -14 -3 -16
-11 -12 -33 3 -16 10 -32 16 -36 6 -4 7 -10 3 -14 -4 -4 -13 -2 -19 4 -8 8
-15 8 -24 1 -15 -13 -29 5 -17 24 13 20 10 97 -5 97 -7 0 -15 7 -19 16 -3 8
-12 13 -20 9 -11 -4 -13 -1 -9 11 5 12 0 15 -22 12 -24 -3 -27 -7 -28 -43 -1
-22 -5 -50 -9 -62 -6 -18 -3 -23 9 -23 11 0 14 5 10 12 -4 7 -3 8 4 4 18 -11
2 -37 -19 -31 -13 4 -19 1 -19 -9 0 -9 3 -15 8 -13 4 1 8 -1 10 -5 5 -18 1
-28 -13 -28 -8 0 -15 9 -15 20 0 21 -40 38 -59 25 -6 -3 -11 -1 -11 4 0 6 -7
11 -16 11 -8 0 -12 -4 -9 -10 3 -5 -1 -10 -10 -10 -12 0 -15 10 -14 49 2 38 5
46 15 37 6 -6 8 -12 3 -14 -5 -2 -9 -10 -9 -18 0 -19 50 -38 64 -24 7 7 4 10
-10 11 -10 0 -14 3 -7 5 7 3 9 12 6 21 -5 13 -2 13 21 -2 15 -10 25 -24 22
-31 -3 -8 -1 -14 4 -14 16 0 12 32 -7 52 -10 12 -12 18 -4 18 7 0 10 4 6 9 -3
5 0 13 6 17 9 5 6 11 -7 22 -17 13 -17 14 -1 8 15 -5 18 -1 16 22 -4 57 0 72
22 72 11 0 27 -7 35 -15z m4891 -4 c11 -15 12 -14 13 2 0 19 35 24 46 6 5 -8
9 -8 14 1 10 16 33 2 26 -16 -8 -20 7 -17 27 6 13 16 21 18 41 10 14 -5 28 -5
31 -1 4 7 57 8 75 1 3 -1 41 -1 85 -1 49 0 72 -3 61 -8 -12 -4 -15 -10 -9 -14
5 -3 19 0 29 8 12 9 43 14 84 14 49 0 61 -2 48 -10 -11 -6 -18 -22 -18 -39 0
-30 -13 -40 -25 -20 -4 6 -11 8 -16 4 -5 -3 -16 -1 -23 5 -9 8 -19 4 -36 -14
-25 -26 -18 -35 9 -11 23 21 74 9 68 -15 -3 -11 -2 -19 3 -19 4 0 10 -11 12
-25 3 -14 2 -25 -1 -25 -3 0 -7 -14 -8 -31 -1 -17 -7 -37 -13 -44 -8 -10 -8
-15 0 -20 8 -5 8 -11 -1 -21 -6 -8 -7 -14 -2 -14 5 0 10 -7 10 -16 0 -11 -7
-14 -25 -9 -25 6 -56 -11 -46 -26 3 -5 -7 -10 -23 -10 -17 -1 -21 -3 -10 -6
16 -4 25 -33 10 -33 -5 0 -9 -16 -10 -35 -1 -19 3 -35 9 -35 6 0 7 -12 2 -32
-10 -43 -7 -72 6 -76 8 -3 7 -8 -1 -18 -17 -20 6 -18 26 3 12 11 15 26 12 50
-3 18 -2 33 3 33 5 0 13 8 18 18 12 23 -5 85 -20 76 -6 -4 -4 3 5 17 9 13 17
31 17 41 0 20 20 25 20 6 0 -7 9 -2 19 11 10 13 23 21 29 17 6 -3 13 -2 17 4
4 6 11 7 17 4 8 -5 9 -1 5 10 -5 12 -2 16 10 14 9 -2 18 3 21 11 3 10 0 12
-13 7 -10 -3 -24 -1 -31 5 -10 8 -14 8 -14 0 0 -6 -7 -11 -15 -11 -8 0 -15 9
-15 21 0 11 4 17 10 14 6 -4 17 -1 25 5 8 6 19 9 26 5 8 -6 7 -10 -2 -16 -11
-7 -9 -9 5 -9 11 0 28 8 39 18 19 16 20 16 8 -5 -8 -16 -8 -23 -1 -23 6 0 13
7 16 15 4 8 13 15 21 15 11 0 13 7 9 26 -6 22 -5 24 13 15 22 -12 33 -35 25
-56 -5 -12 -10 -13 -20 -4 -14 11 -34 5 -34 -12 0 -6 4 -7 10 -4 5 3 18 1 27
-5 17 -11 17 -11 1 -6 -13 4 -18 0 -18 -14 0 -11 5 -20 10 -20 6 0 10 4 10 8
0 5 10 8 22 8 15 -1 23 5 23 16 0 10 5 18 10 18 6 0 10 -4 9 -10 -1 -5 -2 -26
-2 -46 -1 -22 -6 -33 -13 -29 -6 4 -13 -1 -15 -12 -4 -14 -14 -18 -44 -18 -47
1 -61 12 -37 29 23 17 22 53 -2 65 -14 8 -23 6 -36 -9 -10 -11 -13 -20 -7 -20
6 0 12 6 15 13 2 6 8 8 13 4 5 -5 1 -13 -8 -18 -11 -6 -15 -16 -11 -27 6 -16
5 -16 -13 0 -19 17 -47 19 -60 5 -4 -4 -1 -7 6 -7 8 0 3 -9 -11 -23 -18 -18
-28 -21 -39 -13 -12 9 -13 8 -4 -4 13 -17 15 -50 3 -50 -6 0 -6 -28 -1 -94 1
-11 7 -16 16 -13 10 4 13 1 9 -9 -3 -7 -12 -14 -21 -14 -13 0 -13 -3 -4 -12
10 -10 15 -10 21 1 5 7 14 11 20 7 6 -4 9 -2 5 7 -6 16 14 34 39 34 12 0 17
-8 17 -29 0 -34 -6 -35 -30 -6 l-18 23 5 -26 c3 -16 -1 -32 -10 -40 -12 -11
-12 -17 -2 -34 17 -26 14 -67 -5 -73 -13 -5 -13 -3 -1 11 12 15 11 17 -8 17
-15 0 -21 6 -21 23 0 18 -2 19 -10 7 -7 -12 -10 -12 -10 -1 0 7 -6 11 -15 7
-10 -3 -15 1 -15 11 0 36 -20 -5 -23 -45 -2 -43 -10 -54 -21 -27 -3 8 -13 15
-21 15 -12 0 -15 8 -13 30 2 16 -1 29 -7 29 -5 1 -10 -7 -10 -16 0 -9 -6 -18
-14 -21 -8 -3 -11 0 -7 7 5 7 -1 11 -13 11 -22 0 -29 24 -11 35 6 3 10 1 10
-5 0 -6 5 -8 11 -4 6 3 9 18 6 31 -3 19 0 27 13 30 23 6 19 59 -6 78 -16 11
-15 14 5 34 23 23 22 55 -3 76 -6 6 -10 27 -8 48 2 20 -1 37 -5 37 -5 0 -10
11 -11 26 -1 14 2 23 7 20 10 -7 21 27 21 67 0 17 5 27 15 27 8 0 15 2 15 4 0
2 3 13 6 23 6 16 5 15 -9 -2 -22 -29 -32 -12 -14 24 14 29 14 32 -4 41 -10 6
-19 15 -19 21 0 5 11 2 25 -7 14 -9 28 -14 31 -11 3 3 -11 17 -33 30 -21 13
-40 20 -42 15 -2 -6 -7 -4 -12 3 -6 10 -9 11 -9 2 0 -7 -5 -13 -12 -13 -16 0
-48 -31 -48 -47 0 -7 5 -13 10 -13 6 0 10 7 10 15 0 9 10 19 23 24 30 12 35 4
9 -15 -26 -18 -29 -36 -5 -27 10 4 14 2 10 -4 -4 -6 -20 -13 -37 -16 -21 -5
-30 -12 -30 -27 0 -14 -7 -20 -22 -21 -13 0 -18 -3 -11 -6 7 -2 15 -20 19 -39
6 -34 26 -45 40 -22 4 7 3 8 -4 4 -7 -4 -12 -1 -12 8 0 11 8 15 30 12 41 -5
45 -11 26 -37 -11 -16 -14 -35 -10 -63 5 -34 4 -39 -7 -28 -21 20 -34 14 -14
-8 10 -11 15 -28 12 -40 -3 -13 -1 -18 6 -13 7 4 8 0 2 -13 -5 -10 -8 -34 -8
-52 1 -27 -1 -31 -12 -22 -10 8 -14 4 -20 -17 -5 -16 -7 -34 -6 -40 1 -7 -4
-13 -10 -13 -7 0 -4 -7 7 -16 10 -8 12 -13 4 -9 -8 4 -3 -5 12 -19 16 -14 25
-31 22 -39 -3 -8 2 -21 10 -30 21 -20 20 -27 -3 -27 -15 0 -18 -5 -13 -22 3
-13 13 -28 21 -35 25 -19 -5 -16 -34 3 -19 12 -25 13 -25 3 0 -7 -3 -9 -6 -6
-4 4 -1 14 7 23 13 16 11 17 -14 12 -21 -4 -27 -2 -23 8 3 9 0 11 -11 7 -13
-5 -15 -2 -10 11 5 13 3 17 -7 13 -12 -5 -11 1 4 25 10 17 16 37 13 45 -3 8 2
20 11 26 20 15 17 64 -3 77 -8 4 -11 12 -7 18 3 5 0 30 -8 56 -11 37 -11 47
-1 56 14 11 14 27 2 47 -4 6 -2 13 4 15 7 2 13 18 14 36 3 37 -2 41 -14 10 -4
-12 -10 -17 -14 -11 -4 6 2 22 13 36 27 34 25 42 -4 20 -13 -10 -21 -24 -19
-30 3 -8 -3 -13 -13 -13 -15 0 -16 -2 -5 -9 17 -11 6 -31 -17 -31 -13 0 -14 2
-4 8 14 10 6 42 -12 42 -6 0 0 9 14 20 14 11 20 20 14 20 -6 0 -17 -7 -24 -15
-16 -20 -30 -19 -47 3 -8 9 -12 11 -8 5 4 -9 -3 -13 -22 -13 l-27 0 22 16 c15
10 21 22 17 33 -5 13 -4 14 6 4 18 -18 32 -16 25 2 -3 10 1 15 12 16 14 0 14
2 -3 8 -19 7 -19 8 0 18 17 10 17 11 -5 18 -16 5 -19 10 -10 15 9 6 10 12 1
26 -6 11 -11 14 -11 6 0 -15 -25 -43 -32 -37 -3 3 -5 -2 -5 -10 0 -8 3 -12 7
-10 3 2 11 -5 18 -16 7 -10 8 -19 3 -19 -6 0 -21 -10 -35 -22 -45 -43 -55 -48
-61 -38 -3 6 1 13 9 16 9 3 16 14 16 23 0 13 -2 13 -9 2 -5 -7 -13 -11 -19 -7
-6 4 -9 -13 -7 -47 4 -86 3 -81 20 -67 11 9 13 16 6 23 -7 7 -7 15 0 24 14 17
33 17 23 1 -6 -10 -4 -10 8 0 13 10 17 10 21 0 4 -10 7 -10 14 -1 11 16 53 5
53 -14 0 -8 -4 -11 -10 -8 -5 3 -10 3 -10 -2 0 -4 -3 -19 -7 -32 -4 -15 -2
-22 4 -18 6 4 9 -4 7 -20 -1 -15 4 -38 11 -52 l14 -26 1 25 c0 14 9 31 21 38
12 8 18 19 15 28 -3 8 -1 14 4 14 16 0 11 -40 -5 -46 -17 -7 -21 -34 -5 -34 5
0 8 -14 6 -30 -3 -31 -16 -55 -16 -31 0 7 -4 9 -10 6 -17 -11 -11 -36 8 -33 9
2 17 -3 16 -9 -3 -37 -5 -43 -14 -43 -6 0 -10 8 -8 18 2 12 -3 16 -15 14 -10
-2 -25 2 -33 9 -9 7 -14 8 -14 1 0 -6 6 -12 13 -15 8 -3 6 -10 -8 -21 -11 -9
-14 -15 -6 -14 25 5 21 -33 -5 -42 -29 -12 -32 -30 -3 -30 16 0 19 -4 14 -20
-7 -23 10 -27 19 -4 3 8 10 13 15 9 5 -3 17 5 25 17 20 28 20 38 1 38 -8 0
-15 5 -15 11 0 7 10 9 24 7 17 -4 23 -1 19 9 -3 7 0 13 6 13 16 0 14 -29 -4
-46 -8 -9 -15 -26 -15 -40 0 -15 -6 -24 -15 -24 -17 0 -20 -16 -6 -24 5 -4 11
0 14 6 2 7 7 10 11 6 4 -3 2 -15 -5 -26 -7 -11 -9 -28 -5 -38 7 -18 8 -18 17
-1 6 9 7 22 3 28 -4 7 -1 10 7 7 8 -3 13 -13 12 -23 -1 -13 5 -16 23 -12 13 2
24 1 24 -3 0 -12 -28 -20 -45 -14 -11 4 -20 -5 -32 -32 -9 -22 -16 -44 -15
-51 2 -6 -5 -9 -17 -6 -11 3 -19 13 -18 26 0 32 -12 119 -18 126 -15 14 -36
-30 -38 -82 -2 -65 -20 -76 -41 -26 -12 29 -14 30 -29 14 -15 -14 -17 -14 -17
-1 0 8 7 19 15 24 13 6 14 14 6 34 -8 21 -7 28 6 33 14 5 15 8 2 19 -18 18
-79 31 -79 17 0 -5 10 -11 23 -13 15 -2 21 -9 19 -23 -1 -11 -3 -35 -3 -52 -1
-37 -2 -37 -31 -22 -13 7 -17 14 -10 18 14 9 3 53 -12 48 -6 -2 -12 -16 -14
-30 -2 -15 -7 -27 -10 -27 -11 0 -2 83 11 98 13 16 0 29 -14 15 -6 -6 -17 -22
-23 -35 -7 -13 -19 -22 -29 -20 -9 2 -17 -1 -17 -5 0 -5 -20 -10 -45 -11 -25
-1 -45 0 -45 2 0 18 14 34 26 29 18 -7 18 4 0 22 -11 12 -17 11 -36 -2 -16
-11 -25 -12 -33 -4 -8 8 -7 11 4 11 8 0 22 9 32 20 9 11 22 20 29 20 6 0 9 -3
5 -6 -9 -9 21 -36 32 -29 5 3 13 0 18 -7 5 -9 9 -3 13 17 4 18 12 29 19 27 8
-2 11 3 8 12 -4 9 -1 18 4 22 7 4 7 10 0 17 -13 13 -15 31 -3 23 5 -3 20 1 35
9 30 15 45 -2 18 -22 -14 -11 -14 -13 4 -27 11 -8 20 -21 20 -30 0 -9 5 -15
10 -13 11 2 7 74 -5 98 -6 10 -2 19 12 28 23 14 31 10 33 -22 2 -13 8 -21 16
-19 13 3 -13 -34 -36 -50 -6 -5 -6 -8 2 -8 6 0 14 4 18 10 4 6 15 6 31 0 44
-17 64 -4 64 42 0 14 -5 28 -12 30 -7 3 -9 12 -5 22 4 9 12 14 18 10 15 -9 30
17 23 40 -4 10 0 22 7 27 11 7 10 9 -3 9 -10 0 -18 -7 -18 -16 0 -13 -3 -14
-14 -5 -12 10 -10 16 12 38 25 25 25 27 7 34 -11 4 -35 5 -53 2 -27 -4 -31 -3
-26 11 4 12 2 15 -9 10 -9 -3 -14 -15 -12 -30 1 -13 -2 -27 -6 -30 -5 -3 -3
-11 5 -19 8 -8 11 -25 9 -40 -5 -21 -8 -23 -20 -14 -7 7 -12 18 -9 25 6 15
-18 67 -27 58 -3 -3 -3 -12 -1 -19 3 -7 0 -16 -7 -21 -7 -4 -10 -3 -6 3 4 6 0
16 -7 22 -17 14 -29 0 -20 -22 3 -8 1 -18 -5 -22 -6 -3 -11 -19 -11 -35 0 -22
-7 -31 -30 -42 -16 -7 -30 -17 -30 -23 0 -5 -5 -3 -10 5 -12 19 -13 33 -1 26
14 -9 21 20 8 33 -9 9 -9 14 2 20 8 5 9 11 3 15 -11 7 -32 -45 -32 -80 0 -13
-10 -33 -22 -45 -13 -12 -17 -19 -10 -15 7 4 12 2 12 -6 0 -8 -9 -14 -20 -14
-21 0 -29 31 -9 38 13 4 -3 50 -16 48 -18 -2 -22 64 -5 78 13 10 13 11 -3 6
-16 -6 -17 -3 -11 22 4 16 10 31 14 34 8 6 7 159 -1 154 -4 -2 -6 4 -5 14 1
11 -7 18 -22 20 -16 2 -22 8 -18 18 3 8 -1 14 -9 14 -8 0 -15 5 -15 11 0 6 7
8 15 5 8 -3 22 -9 31 -13 14 -5 13 -2 -2 15 -10 12 -24 22 -31 22 -7 0 -13 7
-13 16 0 12 7 15 25 12 31 -6 32 0 3 11 -17 6 -26 4 -36 -8 -10 -13 -11 -10
-6 22 5 30 3 41 -12 53 -17 12 3 14 171 13 162 -1 191 -4 202 -18z m751 -9 c2
-7 -4 -19 -13 -26 -17 -12 -17 -13 4 -19 15 -4 21 -1 21 11 0 10 12 22 26 29
15 7 24 10 20 6 -3 -3 -1 -12 5 -20 12 -14 30 -18 27 -5 0 4 2 15 6 24 6 13
15 16 39 11 18 -3 36 -12 40 -20 4 -7 15 -13 22 -13 17 0 20 -16 5 -25 -12 -8
-50 16 -50 32 0 7 -4 13 -10 13 -13 0 -13 -17 0 -25 6 -4 8 -11 4 -16 -3 -6 3
-19 14 -30 20 -18 22 -18 31 -1 9 15 12 15 21 2 5 -8 10 -10 10 -5 1 6 7 -5
15 -23 8 -18 14 -41 13 -50 -3 -46 2 -61 22 -57 13 3 25 -6 40 -30 11 -18 27
-36 35 -39 20 -7 19 -36 0 -36 -15 0 -74 36 -86 54 -4 4 -10 3 -14 -4 -5 -8
-11 -6 -21 7 -8 10 -14 14 -13 8 4 -28 -1 -37 -14 -26 -16 13 -28 5 -20 -15 3
-8 -1 -14 -11 -14 -10 0 -16 9 -16 23 0 12 -5 29 -11 37 -8 12 -9 10 -4 -9 5
-16 4 -21 -4 -17 -15 10 -14 -7 1 -22 9 -9 8 -12 -5 -12 -10 0 -17 8 -17 19 0
11 -4 23 -10 26 -16 10 -12 48 4 42 8 -3 20 2 28 11 12 16 11 16 -6 2 -18 -14
-18 -13 -11 9 6 20 4 23 -9 18 -9 -4 -16 -3 -16 2 0 5 9 11 20 14 24 6 27 27
4 27 -11 0 -15 8 -13 28 6 73 -10 80 -60 27 -34 -36 -46 -42 -55 -26 -3 5 -15
7 -26 4 -11 -3 -20 0 -20 6 0 6 5 11 10 11 6 0 10 5 10 11 0 5 -5 7 -11 3 -6
-3 -15 0 -20 7 -6 10 -9 6 -9 -13 0 -26 29 -46 49 -34 11 7 24 -41 16 -55 -4
-5 -11 -7 -16 -3 -5 3 -20 7 -34 10 -20 4 -26 -1 -34 -28 -9 -31 -10 -31 -16
-10 -7 22 -25 31 -25 12 0 -5 -5 -10 -12 -10 -9 0 -9 3 0 12 7 7 12 19 12 28
0 9 7 17 15 17 8 0 15 -4 15 -8 0 -5 7 -6 15 -3 13 5 13 9 0 34 -8 16 -12 36
-9 44 3 9 1 16 -4 16 -15 0 -42 29 -42 46 0 24 19 16 26 -11 3 -14 10 -25 15
-25 12 0 11 17 -1 25 -5 3 -10 12 -10 20 0 19 112 15 118 -3z m-5203 -29 c-5
-2 -17 -8 -25 -13 -13 -9 -13 -12 3 -21 18 -11 24 -59 7 -59 -5 0 -10 7 -10
15 0 8 -4 15 -10 15 -12 0 -12 -3 -4 -24 3 -9 12 -16 19 -16 7 0 15 -18 18
-42 3 -24 11 -44 16 -46 14 -5 14 -52 1 -52 -5 0 -10 -7 -10 -15 0 -8 -6 -15
-12 -15 -9 0 -9 -3 -2 -8 18 -12 24 -40 10 -45 -23 -9 -26 -57 -4 -79 20 -20
20 -20 -1 -39 -28 -27 -28 -65 1 -73 18 -4 20 -8 11 -17 -16 -16 2 -50 22 -43
9 4 15 0 15 -10 0 -9 -8 -16 -20 -16 -11 0 -20 -5 -20 -11 0 -5 -4 -7 -10 -4
-5 3 -10 15 -10 26 0 11 -4 17 -10 14 -5 -3 -7 -18 -4 -34 5 -23 2 -29 -17
-34 -26 -7 -41 9 -35 35 2 10 -2 22 -10 29 -10 8 -14 8 -14 0 0 -6 -9 -11 -20
-11 -11 0 -19 -6 -18 -12 2 -8 -10 -14 -29 -16 -36 -4 -40 4 -19 33 12 16 12
22 0 41 -13 19 -13 22 6 27 11 3 23 1 26 -5 4 -6 10 -5 18 2 8 9 8 14 -2 17
-6 3 -9 10 -5 16 4 6 8 22 9 35 4 35 10 36 34 12 l22 -22 -23 -24 c-22 -24
-22 -24 -3 -39 10 -8 22 -15 26 -15 3 0 15 -3 25 -7 15 -6 16 -4 5 9 -10 12
-10 17 -1 20 13 4 15 54 4 88 -4 12 -2 20 5 20 13 0 8 51 -10 98 -11 28 -36
52 -55 52 -9 0 1 -53 14 -78 8 -16 7 -21 -5 -26 -8 -3 -14 -14 -12 -23 2 -10
-4 -19 -14 -21 -13 -2 -16 1 -12 12 3 9 1 16 -5 16 -13 0 -10 22 4 32 6 4 2 8
-7 8 -10 0 -18 6 -18 14 0 8 -10 18 -21 21 -17 6 -19 9 -8 16 8 5 11 9 7 10
-5 1 -12 3 -18 4 -5 1 -13 3 -16 4 -3 0 -2 6 2 12 4 7 10 7 16 1 6 -6 16 -8
23 -6 7 3 20 -5 29 -18 16 -23 21 -16 17 25 -1 9 3 17 10 17 8 0 5 8 -6 20
-12 13 -14 20 -5 20 10 0 10 3 -1 16 -7 8 -13 30 -14 47 -1 28 -5 32 -28 31
-15 0 -27 5 -27 12 0 19 20 28 33 15 15 -15 30 -14 24 3 -3 7 0 19 6 25 8 8 7
11 -3 11 -24 0 3 17 38 25 24 5 33 3 38 -9 3 -9 10 -16 15 -16 4 0 6 6 4 13
-5 12 45 48 55 39 3 -3 1 -6 -5 -9z m-512 -574 c-3 -10 -9 -22 -14 -24 -4 -3
-6 -12 -3 -20 4 -8 10 -12 15 -9 5 3 9 -2 9 -11 0 -12 -5 -15 -17 -10 -15 5
-16 4 -5 -6 14 -15 16 -69 2 -69 -5 0 -7 -7 -3 -15 7 -21 29 -13 25 10 -2 9 1
15 5 12 5 -3 18 8 28 24 20 30 39 33 41 8 1 -8 2 -17 3 -21 0 -5 1 -11 0 -14
0 -3 7 -11 17 -18 11 -9 15 -21 11 -35 -4 -18 -2 -21 14 -16 10 3 28 8 39 11
11 3 20 1 20 -5 0 -6 -4 -11 -10 -11 -5 0 -10 -6 -10 -14 0 -8 7 -13 16 -12 9
0 19 -5 21 -12 4 -10 -7 -12 -41 -9 -41 4 -78 17 -47 17 7 0 10 4 7 9 -3 4
-17 6 -31 3 -19 -3 -25 0 -25 14 0 20 -33 47 -44 37 -3 -4 1 -14 10 -24 19
-21 10 -46 -11 -29 -10 8 -15 4 -23 -20 -6 -16 -8 -30 -4 -30 10 0 -21 -20
-32 -20 -4 0 -6 7 -2 15 3 8 1 27 -4 41 -9 23 -7 27 20 37 32 12 42 32 11 22
-12 -3 -21 0 -25 10 -3 8 -10 15 -16 15 -6 0 -8 -5 -5 -11 4 -5 -3 -19 -15
-29 -20 -17 -21 -20 -6 -26 9 -3 16 -17 16 -30 0 -22 -3 -23 -20 -14 -25 13
-29 87 -5 96 8 4 15 10 15 15 0 5 -7 9 -15 9 -8 0 -15 5 -15 11 0 8 12 10 34
6 41 -7 50 0 30 20 -11 11 -12 18 -3 29 8 10 7 20 -3 41 -20 42 -13 68 21 70
24 2 28 -1 24 -18z m5911 7 c12 5 16 0 14 -22 -1 -16 -6 -35 -11 -41 -5 -7 -6
-24 -3 -38 8 -33 8 -40 -4 -40 -5 0 -9 -4 -7 -10 1 -5 4 -9 7 -8 42 13 45 9
47 -54 1 -58 -7 -78 -22 -53 -3 6 -2 10 3 10 6 0 8 9 5 20 -3 11 -10 20 -15
20 -6 0 -7 8 -4 18 6 16 5 16 -8 -1 -8 -10 -20 -15 -30 -11 -9 3 -16 1 -16 -5
0 -6 11 -13 25 -17 21 -5 24 -10 18 -33 -4 -14 -6 -34 -6 -43 1 -9 -5 -19 -12
-22 -16 -6 -29 9 -20 24 3 5 -1 22 -9 37 -8 16 -15 22 -16 16 0 -7 -4 -13 -10
-13 -13 0 -13 33 1 47 8 8 8 13 0 17 -6 4 -11 2 -11 -3 0 -6 -7 -11 -15 -11
-8 0 -15 -9 -15 -20 0 -13 -7 -20 -20 -20 -15 0 -20 7 -20 25 0 14 -5 25 -11
25 -5 0 1 15 14 33 13 17 23 42 22 54 -2 18 1 21 16 13 14 -8 17 -18 13 -48
-4 -26 -3 -33 4 -23 6 8 8 20 5 28 -7 17 5 17 23 -2 9 -8 13 -19 9 -24 -9 -15
16 -25 28 -11 9 10 9 14 0 17 -7 3 -13 17 -13 32 0 15 6 33 13 40 10 10 9 11
-5 6 -13 -5 -18 -2 -18 10 0 11 5 15 15 11 16 -6 21 14 6 30 -5 5 -12 20 -16
32 -6 21 -5 23 13 13 11 -6 28 -8 36 -5z m-2114 -276 c7 0 10 -8 7 -19 -3 -12
1 -22 10 -25 11 -5 13 -2 9 9 -8 21 20 31 39 15 20 -17 19 -30 -3 -30 -10 0
-22 -4 -27 -9 -6 -5 -65 -28 -133 -51 -68 -22 -130 -44 -138 -47 -9 -3 -14 1
-14 13 0 16 -2 15 -23 -4 -13 -12 -26 -22 -30 -22 -3 0 19 23 49 51 30 29 54
57 54 64 0 16 -38 27 -46 13 -3 -5 -13 -7 -21 -4 -9 4 -22 1 -30 -6 -11 -9
-16 -9 -24 3 -13 21 29 49 69 47 17 -1 32 -6 32 -10 0 -4 5 -8 10 -8 6 0 10 7
10 16 0 8 4 13 10 9 5 -3 7 -12 3 -20 -3 -11 -1 -13 10 -9 33 12 25 -17 -15
-56 -45 -44 -24 -40 38 7 34 25 58 30 51 11 -2 -7 -10 -13 -19 -13 -16 0 -72
-34 -66 -41 8 -7 96 27 108 41 6 8 18 11 26 8 17 -6 19 19 4 48 -7 13 -7 19 0
19 5 0 10 8 10 18 1 16 1 16 14 0 7 -10 19 -18 26 -18z m-2909 -552 c0 -7 4
-48 7 -90 6 -62 5 -78 -6 -78 -7 0 -10 -5 -7 -11 4 -6 19 -7 36 -4 18 4 29 3
29 -4 0 -6 -19 -11 -42 -11 -23 0 -38 -3 -34 -7 10 -11 79 -4 87 9 4 7 17 8
35 3 l29 -8 -25 -7 c-22 -7 -20 -8 14 -9 30 -1 36 2 28 12 -7 8 -6 16 3 24 17
16 21 4 17 -51 l-4 -44 -51 -4 c-63 -4 -118 2 -112 11 2 4 -2 8 -10 8 -8 0
-15 -4 -15 -8 0 -4 -3 -14 -6 -22 -4 -12 10 -14 96 -13 67 1 99 -1 97 -8 -2
-6 -20 -13 -41 -16 -20 -3 -35 -9 -34 -14 4 -12 -91 -46 -98 -34 -3 5 -11 2
-18 -8 -9 -11 -19 -14 -34 -10 -24 8 -26 14 -13 34 7 12 35 19 81 21 13 1 13
2 0 11 -8 5 -24 10 -35 10 -35 1 -46 16 -51 67 -4 39 -1 52 11 57 9 3 15 0 15
-10 0 -8 5 -12 10 -9 6 3 10 17 10 30 0 13 6 26 13 29 9 3 7 8 -5 16 -9 6 -15
17 -11 25 3 8 -2 27 -12 41 -16 25 -16 26 3 20 23 -8 34 11 25 43 -3 12 -1 21
6 21 6 0 11 -6 12 -12z m-541 -170 c0 -16 -6 -28 -12 -28 -8 -1 -5 -7 6 -15
16 -12 19 -25 16 -77 -1 -35 -2 -70 -1 -78 0 -18 0 -141 -1 -155 0 -5 1 -16 3
-24 5 -19 -31 -29 -115 -30 -56 -1 -67 2 -63 14 4 8 2 17 -2 20 -12 7 -19 51
-11 65 4 6 4 32 0 58 -5 26 -5 64 -1 86 6 36 10 40 69 63 50 20 65 32 78 60
13 26 14 37 5 46 -17 17 -13 26 9 24 15 -1 20 -8 20 -29z m4674 -3 c15 -19 34
-35 42 -35 9 0 12 -5 8 -11 -4 -6 -10 -27 -14 -46 -8 -32 -5 -38 30 -73 36
-36 38 -41 38 -100 -1 -37 -5 -63 -12 -66 -7 -3 -12 -14 -13 -24 -1 -11 2 -18
8 -15 14 10 11 -3 -8 -25 -15 -17 -30 -20 -95 -20 l-77 0 -3 99 c-3 113 -1
134 15 128 7 -3 11 -10 10 -16 -2 -6 2 -11 7 -11 6 0 10 15 10 34 0 19 -4 38
-10 41 -5 3 -10 -1 -10 -9 0 -9 -4 -16 -9 -16 -7 0 -8 34 -2 89 0 8 9 11 21 8
14 -4 20 0 20 12 0 25 11 33 27 20 21 -18 15 6 -7 26 -20 19 -27 45 -11 45 5
0 21 -16 35 -35z m-4563 -110 c1 -27 2 -57 1 -65 -5 -51 -7 -60 -17 -60 -5 0
-4 -4 3 -9 20 -12 12 -101 -10 -115 -9 -5 -19 -8 -22 -5 -3 3 -8 52 -11 109
-3 58 -8 117 -11 133 -5 22 -2 27 15 27 21 0 37 17 26 28 -3 3 -10 0 -14 -7
-12 -18 -21 1 -14 27 5 21 6 21 29 4 19 -13 24 -27 25 -67z m-684 -277 c12 -6
20 -15 17 -20 -3 -4 0 -8 5 -8 6 0 11 4 11 10 0 5 7 7 15 4 8 -4 34 -7 57 -8
24 -1 44 -6 46 -11 4 -12 -34 -19 -56 -10 -28 11 -208 8 -246 -5 -39 -12 -116
-14 -251 -4 -96 7 -131 25 -68 35 21 4 38 10 40 15 2 5 25 7 52 6 39 -3 50 -8
54 -24 5 -19 11 -20 74 -14 83 9 105 15 98 27 -13 21 9 28 68 23 34 -2 72 -10
84 -16z m5983 3 c0 -5 32 -10 70 -10 61 0 75 -4 101 -26 17 -14 29 -26 27 -26
-2 -1 -50 -4 -108 -6 -137 -5 -149 -7 -143 -15 2 -5 -5 -8 -16 -8 -13 0 -21 7
-21 16 0 9 -6 14 -13 11 -7 -3 -21 1 -32 9 -17 12 -10 14 58 14 l77 0 -10 25
c-6 16 -6 25 0 25 6 0 10 -4 10 -9z"/>
<path d="M4380 3639 c0 -5 -4 -8 -9 -5 -10 7 -21 -17 -21 -46 0 -10 -6 -25
-12 -31 -17 -16 -52 -22 -43 -8 3 6 2 11 -2 11 -15 0 -33 -23 -32 -39 0 -11 2
-12 6 -3 2 6 8 12 13 12 14 0 4 -51 -11 -61 -11 -7 -11 -9 4 -9 15 0 23 -24
18 -55 -1 -5 5 -3 14 6 13 13 15 21 6 37 -17 31 -13 40 14 38 27 -1 33 -11 13
-19 -10 -4 -10 -8 2 -16 8 -5 18 -7 24 -4 5 3 6 1 2 -5 -3 -6 2 -16 11 -22 15
-8 13 -9 -9 -4 l-28 6 0 -67 c0 -42 4 -64 10 -60 6 4 8 11 5 16 -4 5 -2 9 4 9
13 0 45 59 37 68 -3 3 1 13 10 23 14 16 14 18 -5 24 -12 3 -21 13 -21 21 0 8
-4 12 -10 9 -9 -6 -11 -1 -14 38 -1 6 5 11 12 9 8 -1 11 2 6 9 -13 21 -12 68
1 73 11 4 19 56 9 56 -2 0 -4 -5 -4 -11z"/>
<path d="M4393 3331 c-13 -27 -32 -52 -42 -56 -12 -4 -18 -12 -14 -21 3 -9 -1
-14 -12 -14 -11 0 -15 5 -11 15 3 8 1 15 -4 15 -6 0 -10 10 -10 23 -1 21 -1
22 -15 3 -10 -13 -11 -22 -5 -26 6 -4 0 -17 -15 -34 -14 -15 -25 -32 -25 -38
0 -6 -9 -8 -20 -5 -21 5 -27 -7 -9 -18 7 -5 4 -13 -7 -26 -9 -10 -20 -16 -25
-13 -4 2 -12 -3 -18 -13 -7 -15 -5 -18 14 -19 18 -1 22 2 17 15 -5 14 -4 15
14 1 18 -14 18 -14 5 3 -15 18 -2 24 16 6 7 -7 12 -1 17 24 6 35 27 52 55 48
13 -2 13 -1 0 15 -13 16 -12 16 9 3 12 -8 22 -17 22 -22 0 -4 -5 -5 -10 -2 -6
3 -13 -2 -16 -12 -3 -10 -10 -26 -15 -37 -6 -10 -7 -16 -2 -14 47 22 61 34 70
59 9 22 18 29 38 29 25 0 25 1 10 17 -14 13 -14 18 -3 24 8 5 13 22 12 46 -1
21 3 46 8 56 5 9 5 17 1 17 -4 0 -18 -22 -30 -49z"/>
<path d="M7664 4948 c-44 -27 -83 -54 -89 -60 -13 -13 41 0 80 20 32 15 27 8
-18 -25 l-27 -21 24 2 c13 0 22 3 20 5 -2 2 5 11 17 19 16 11 23 12 32 3 9 -9
7 -10 -7 -5 -12 5 -17 4 -13 -3 4 -6 -12 -23 -34 -38 -56 -37 -40 -52 32 -30
30 9 90 20 133 26 43 5 92 17 109 25 16 9 40 13 53 10 23 -6 24 -5 24 59 l0
64 -129 0 -129 -1 -78 -50z"/>
<path d="M0 4911 l0 -61 54 0 c30 0 62 -3 72 -7 13 -5 15 -3 9 7 -6 10 -3 12
11 7 97 -29 267 -67 299 -67 18 0 18 2 -5 19 -13 11 -28 17 -32 15 -4 -3 -8 0
-8 6 0 6 -4 9 -9 6 -5 -4 -11 -2 -13 4 -5 15 -68 31 -68 18 0 -6 -9 -3 -19 6
-11 10 -25 19 -33 20 -7 1 -26 9 -43 18 -16 9 -49 21 -72 27 -24 7 -43 15 -43
19 0 4 -10 7 -22 8 -13 0 -35 4 -50 8 l-28 8 0 -61z"/>
</g>
</svg>
