<?xml version="1.0" standalone="no"?>
<!DOCTYPE svg PUBLIC "-//W3C//DTD SVG 20010904//EN"
 "http://www.w3.org/TR/2001/REC-SVG-20010904/DTD/svg10.dtd">
<svg version="1.0" xmlns="http://www.w3.org/2000/svg"
 width="640.000000pt" height="427.000000pt" viewBox="0 0 640.000000 427.000000"
 preserveAspectRatio="xMidYMid meet">
<metadata>
Created by potrace 1.16, written by Peter Selinger 2001-2019
</metadata>
<g transform="translate(0.000000,427.000000) scale(0.100000,-0.100000)"
fill="#000000" stroke="none">
<path d="M58 4249 c24 -10 41 -23 37 -29 -4 -6 -3 -10 2 -9 4 1 15 0 23 -4
109 -41 511 -155 582 -163 175 -22 223 -31 221 -42 -2 -7 2 -12 7 -12 6 0 10
-5 10 -11 0 -5 -6 -7 -12 -4 -7 4 -3 -3 10 -14 l23 -20 -20 -23 c-26 -27 -26
-45 -4 -70 17 -19 16 -19 -12 -12 -16 4 -48 8 -71 8 -23 1 -40 5 -36 10 3 5
-3 6 -13 3 -9 -4 -23 -3 -29 2 -13 11 -86 26 -86 17 0 -3 15 -10 33 -16 l32
-10 -33 5 c-29 4 -31 3 -18 -10 11 -12 21 -13 41 -5 35 13 34 13 30 -10 -3
-16 2 -20 21 -20 13 0 24 5 24 11 0 5 5 7 12 3 7 -4 8 -3 4 4 -4 7 -1 12 7 12
7 0 14 -7 14 -15 0 -8 -7 -15 -15 -15 -9 0 -13 -2 -11 -4 3 -3 31 -1 64 3 33
5 65 5 71 0 5 -5 42 -7 81 -6 39 1 66 5 60 9 -7 4 -19 8 -29 8 -11 0 -15 6
-11 21 4 14 -1 25 -16 35 -30 21 -28 54 4 54 24 0 24 0 10 40 l-14 40 54 0
c47 0 54 -2 49 -17 -5 -17 -4 -17 9 0 11 13 33 19 81 22 36 2 69 6 73 8 5 3
26 8 49 11 36 6 41 5 52 -18 9 -19 8 -25 -4 -30 -22 -9 -16 -44 11 -62 13 -9
39 -17 57 -18 32 -1 33 0 32 42 0 27 4 42 12 42 19 0 24 26 9 47 -21 27 -19
31 28 43 68 18 229 88 284 124 l50 33 -8 -36 c-4 -20 -10 -46 -14 -57 -5 -16
0 -27 21 -43 57 -45 109 -16 101 55 -3 31 0 44 9 48 17 7 18 38 2 54 -7 7 -41
12 -81 12 -68 0 -69 0 -65 -25 4 -21 0 -26 -28 -35 -19 -7 -34 -15 -34 -19 0
-7 -84 -45 -94 -42 -4 0 -23 -8 -43 -19 -28 -15 -39 -17 -42 -8 -2 7 -8 16
-13 19 -4 3 21 18 57 34 36 16 65 33 65 38 0 4 4 6 9 2 5 -3 15 1 23 8 7 8 18
12 24 10 6 -2 21 5 34 15 l22 18 -23 -1 c-13 0 -66 -22 -116 -48 -91 -46 -139
-62 -96 -32 12 9 20 22 17 29 -5 14 19 27 61 31 35 4 36 5 30 14 -7 12 -29 8
-79 -13 -47 -20 -52 -20 -36 -1 7 9 8 15 2 15 -5 0 -12 -7 -16 -15 -3 -8 -13
-15 -22 -15 -10 0 -14 -5 -11 -15 4 -8 2 -17 -3 -20 -18 -11 -10 -23 12 -17
13 3 19 1 15 -5 -13 -21 -246 -82 -314 -83 -18 0 -33 -4 -33 -9 0 -11 103 -9
111 2 3 4 17 9 30 11 13 2 31 6 39 8 8 3 44 12 80 21 62 15 66 15 84 -3 18
-18 18 -19 -20 -29 -21 -6 -57 -12 -79 -14 -22 -1 -46 -6 -53 -11 -31 -19 -76
-25 -91 -13 -11 9 -13 9 -8 0 8 -12 -2 -15 -95 -27 -42 -5 -55 2 -32 19 15 11
15 12 0 12 -8 0 -18 -9 -21 -18 -6 -17 -8 -18 -31 -3 -13 9 -24 12 -24 6 0 -6
8 -13 18 -16 28 -8 -254 6 -356 18 -30 3 -70 10 -90 15 -21 5 -63 15 -94 21
-50 10 -181 48 -228 67 -10 4 -3 9 20 14 29 7 38 5 51 -11 9 -10 31 -20 50
-23 19 -2 26 -2 17 0 -10 2 -18 8 -18 13 0 4 23 2 50 -5 28 -7 48 -9 44 -4 -3
5 -12 9 -20 9 -9 0 -12 5 -8 12 4 7 3 8 -5 4 -16 -10 -113 13 -105 25 3 5 -1
6 -8 4 -8 -3 -36 1 -62 9 -27 8 -53 13 -58 10 -4 -3 -8 0 -8 5 0 6 -5 11 -12
11 -7 0 3 -16 22 -35 19 -19 32 -35 29 -35 -39 1 -189 66 -189 83 0 9 -2 9 -8
0 -6 -9 -21 -6 -61 12 -29 14 -58 25 -64 24 -7 0 7 -9 31 -20z"/>
<path d="M2494 4247 c4 -19 -5 -33 -45 -73 -27 -27 -53 -48 -57 -46 -4 1 -7
-1 -7 -5 0 -17 -18 -33 -90 -88 -128 -96 -313 -189 -354 -178 -11 3 -29 2 -38
-1 -15 -6 -15 -8 -3 -16 13 -8 12 -10 -2 -10 -10 0 -18 5 -18 11 0 5 -5 7 -11
3 -8 -4 -7 -9 2 -15 11 -7 10 -9 -3 -9 -11 0 -16 -7 -15 -20 2 -25 13 -26 19
-2 3 11 30 25 79 41 41 13 98 34 128 47 29 14 58 26 64 27 6 1 20 10 31 20 11
9 26 17 33 17 8 0 11 5 7 12 -5 8 -2 9 10 5 9 -4 15 -3 11 3 -3 5 3 8 12 8 10
0 24 1 32 3 8 2 16 -3 18 -11 5 -22 -77 -70 -119 -70 -35 0 -93 -34 -84 -49 7
-11 -223 -91 -262 -91 -26 0 -29 24 -4 40 14 10 13 11 -8 6 -14 -3 -51 -11
-83 -17 l-57 -12 27 -22 26 -23 -29 -5 -29 -4 30 -2 c39 -1 66 -39 40 -53 -12
-7 -15 -17 -11 -34 6 -21 3 -24 -23 -24 -31 0 -49 -14 -31 -25 5 -3 10 -2 10
2 0 5 8 10 18 11 9 1 26 3 37 6 11 2 36 -3 54 -11 38 -15 61 -11 61 11 0 7 7
16 15 20 18 7 20 -5 3 -22 -7 -7 -8 -12 -4 -12 10 0 35 31 36 43 0 4 -11 7
-25 7 -18 0 -26 -7 -31 -25 -3 -14 -10 -25 -15 -25 -6 0 -5 9 1 20 7 14 8 26
0 39 -13 26 -13 31 4 31 8 0 16 7 20 15 3 8 12 12 21 9 8 -3 15 -1 15 4 0 6
-9 9 -20 7 -12 -2 -24 3 -30 15 -8 15 -5 19 16 24 14 4 35 4 47 1 15 -4 18 -3
9 3 -11 7 -7 11 14 16 18 5 30 3 35 -6 6 -9 9 -8 15 5 3 9 10 14 15 11 5 -3 9
0 9 6 0 13 39 28 86 34 24 3 34 1 34 -9 0 -8 -4 -17 -10 -20 -5 -3 -10 -11
-10 -16 0 -6 5 -7 12 -3 7 5 8 3 4 -5 -5 -7 -14 -10 -22 -7 -28 11 3 -39 34
-55 18 -9 38 -22 47 -29 11 -10 17 -9 29 3 8 8 31 18 52 21 20 4 34 10 31 12
-3 3 -21 1 -41 -4 -34 -10 -36 -9 -30 12 3 12 1 34 -5 48 -8 20 -7 29 5 38 18
16 18 34 -1 50 -8 7 -15 16 -15 21 0 4 28 24 63 45 90 54 218 164 292 251 60
70 74 93 59 93 -10 0 -31 -26 -38 -46 -3 -11 -40 -55 -82 -98 -58 -58 -79 -74
-86 -64 -8 10 -9 10 -5 -2 4 -17 -2 -24 -56 -64 -34 -26 -39 -27 -55 -14 -9 9
-24 13 -32 11 -8 -2 -4 5 10 16 14 11 32 19 40 18 8 -1 14 3 13 9 -1 6 29 39
68 73 38 34 69 58 69 52 0 -6 -10 -19 -22 -31 -12 -11 -16 -20 -10 -20 6 0 33
23 59 52 27 28 61 64 78 80 l29 28 -33 0 c-19 0 -43 -8 -53 -17 -18 -16 -18
-16 -12 0 4 10 1 17 -6 17 -8 0 -10 -8 -6 -23z"/>
<path d="M3025 4220 c-21 -28 -39 -49 -41 -47 -2 2 1 19 6 38 l9 34 -20 -25
c-11 -14 -34 -41 -50 -60 -16 -19 -28 -42 -28 -50 0 -12 2 -12 6 -1 10 25 36
50 46 44 6 -4 8 1 4 10 -7 18 8 24 18 8 8 -14 -131 -177 -206 -241 -96 -84
-132 -108 -243 -166 -109 -58 -121 -68 -32 -29 54 24 56 24 56 5 0 -11 -6 -20
-13 -20 -8 0 -22 -9 -31 -19 -10 -11 -29 -22 -43 -26 -14 -3 -23 -8 -20 -12 3
-3 20 2 36 10 18 9 31 11 31 5 0 -6 6 -8 14 -5 8 3 16 -2 19 -15 4 -14 0 -22
-14 -25 -33 -9 -23 -41 17 -52 52 -14 67 -5 62 40 -2 25 1 40 9 43 17 7 16 26
-3 47 -14 16 -10 20 48 55 35 20 83 53 107 72 28 23 40 29 33 16 -5 -10 -12
-37 -13 -59 -4 -35 -1 -41 24 -53 44 -21 75 -8 83 33 3 19 4 41 1 49 -3 8 1
20 9 26 20 17 18 29 -8 50 l-23 19 31 33 c30 32 224 263 254 303 14 18 14 19
-2 6 -14 -10 -25 -11 -49 -2 -45 16 -43 16 -84 -39z"/>
<path d="M4755 4254 c11 -8 19 -19 18 -24 -2 -5 3 -7 11 -4 21 8 89 -23 80
-37 -5 -8 -2 -10 8 -7 8 4 46 -8 84 -26 l68 -33 -24 -15 c-14 -8 -64 -39 -112
-67 -49 -29 -88 -55 -88 -57 0 -5 35 14 97 54 20 13 27 11 66 -11 40 -22 47
-23 71 -10 34 18 33 24 -2 11 -22 -9 -35 -7 -67 9 l-39 21 42 21 c31 16 42 18
42 8 0 -9 15 -13 53 -12 43 1 51 4 49 18 -2 9 1 17 7 17 5 0 17 7 25 16 10 10
16 11 16 4 0 -7 8 -3 18 9 12 15 21 18 32 12 12 -8 12 -13 -4 -30 -10 -11 -25
-17 -34 -14 -13 5 -14 3 -6 -6 9 -10 17 -10 33 -2 14 8 21 8 21 1 0 -17 25
-11 38 10 15 25 28 25 42 1 7 -14 7 -22 -2 -27 -7 -4 -8 -3 -4 4 10 17 -5 14
-34 -6 -32 -22 -38 -58 -10 -67 20 -6 24 -15 21 -47 -3 -22 40 -34 67 -19 17
9 41 2 134 -40 62 -28 144 -67 181 -86 86 -43 117 -55 117 -44 0 4 -18 13 -40
20 -25 7 -45 21 -51 35 -8 17 -17 22 -34 19 -12 -3 -42 5 -66 17 -56 28 -54
27 -39 45 12 14 11 15 -12 4 -22 -9 -35 -7 -87 16 -33 15 -61 32 -61 37 0 5
-4 7 -9 4 -14 -9 -34 21 -33 52 0 15 -4 35 -9 45 -14 26 20 22 85 -10 47 -23
53 -29 43 -42 -10 -14 -10 -14 4 -3 14 10 27 7 78 -18 56 -28 78 -50 49 -50
-8 0 -7 -6 4 -16 9 -9 21 -13 28 -9 9 6 9 10 -1 16 -30 19 21 9 66 -13 37 -18
44 -26 41 -45 -3 -13 0 -23 5 -23 5 0 9 7 9 15 0 22 15 19 81 -15 32 -17 87
-44 122 -61 82 -42 92 -50 75 -61 -8 -5 -2 -6 15 -2 41 9 33 -3 -17 -26 -53
-24 -80 -26 -52 -5 11 8 15 15 9 15 -6 0 -21 -9 -34 -21 -13 -11 -19 -18 -14
-16 6 3 28 -3 49 -14 49 -24 49 -24 36 1 -9 17 -7 22 16 30 19 7 30 7 40 -1
11 -9 14 -7 14 10 0 18 3 20 19 11 28 -14 77 -32 69 -25 -3 3 -191 98 -417
210 -226 113 -411 209 -411 215 0 6 -6 10 -12 8 -20 -3 -58 12 -58 24 0 5 7 7
15 4 20 -8 42 -14 33 -9 -16 9 -7 34 16 44 18 9 30 7 57 -7 68 -37 88 -44 83
-29 -3 8 -19 17 -35 20 -16 4 -29 11 -29 16 0 5 -7 9 -16 9 -8 0 -23 7 -32 16
-15 15 -15 16 3 10 13 -3 35 4 60 19 22 13 36 25 32 25 -5 0 -22 -8 -38 -17
-23 -14 -34 -15 -57 -6 -56 22 -68 25 -43 10 35 -21 35 -45 -1 -63 -28 -15
-34 -15 -69 3 -21 10 -39 20 -39 23 1 3 16 12 35 21 l35 16 1 -31 c0 -30 1
-30 11 -8 9 18 8 26 -4 38 -14 14 -21 13 -72 -16 -46 -26 -61 -30 -83 -23 -17
6 -28 17 -28 28 0 10 -6 20 -12 22 -7 3 -13 -2 -13 -11 0 -13 -3 -13 -27 0
-16 7 -31 14 -34 14 -5 0 -5 -24 0 -49 1 -3 6 0 13 7 7 7 16 12 21 12 16 0 -3
-18 -46 -43 l-44 -26 -62 31 c-60 29 -61 31 -45 49 21 23 7 25 -24 4 -19 -14
-24 -14 -51 0 -38 19 -52 19 -26 -1z"/>
<path d="M200 3953 c38 -14 42 -17 25 -24 -13 -6 -8 -7 15 -3 19 3 46 1 60 -5
25 -10 25 -10 2 -10 -13 -1 -20 -5 -17 -11 4 -7 -2 -9 -17 -7 -12 2 -17 2 -10
0 8 -3 11 -11 8 -19 -3 -8 -1 -14 5 -14 6 0 7 -5 4 -10 -4 -6 -12 -7 -18 -4
-7 4 2 -8 18 -27 17 -19 26 -31 21 -27 -9 7 -53 -21 -52 -33 1 -3 -5 -13 -13
-22 -11 -15 -11 -17 2 -17 8 0 21 -7 28 -16 12 -15 11 -16 -6 -11 -74 22 -228
57 -233 52 -3 -3 -3 -5 -1 -6 26 -4 70 -15 224 -55 99 -25 194 -48 210 -50 17
-2 4 4 -27 12 -32 9 -55 20 -52 26 3 5 12 7 20 4 8 -3 14 -1 14 4 0 6 -4 10
-10 10 -17 0 -11 18 8 23 14 4 13 5 -4 6 -25 1 -69 45 -59 60 3 6 11 9 16 5 6
-3 19 2 29 11 15 14 17 22 9 37 -10 18 -8 19 11 13 25 -8 224 -65 227 -65 1 0
4 -8 6 -17 4 -16 5 -16 6 -1 1 15 6 15 59 2 31 -7 64 -13 72 -13 8 0 -44 16
-116 34 -72 18 -140 38 -150 44 -17 11 -16 12 6 6 14 -4 44 -7 67 -8 23 -1 44
-5 48 -9 4 -4 14 -4 23 -1 9 4 13 2 9 -4 -4 -6 4 -8 21 -6 21 4 24 2 12 -6
-13 -10 -13 -11 0 -10 8 0 23 4 33 8 13 5 -5 12 -60 25 -43 10 -129 33 -192
53 -62 19 -115 32 -118 30 -2 -3 9 -8 26 -12 17 -4 29 -11 25 -16 -3 -5 4 -9
16 -9 13 0 18 -4 14 -11 -8 -14 -56 -2 -71 18 -7 9 -13 12 -13 7 0 -6 -13 -9
-30 -6 -16 2 -30 9 -30 14 0 5 10 6 23 3 17 -5 19 -4 7 4 -13 9 -12 11 5 12
11 0 -20 14 -70 30 -94 30 -142 39 -65 12z"/>
<path d="M1334 3813 c-15 -3 -20 -10 -17 -22 3 -11 -4 -21 -19 -28 -16 -8 -18
-12 -7 -12 15 -1 29 -20 29 -38 0 -3 -11 -3 -24 -1 -14 3 -31 1 -38 -3 -7 -4
-15 -3 -19 3 -5 8 -13 6 -25 -6 -12 -13 -13 -17 -3 -16 39 6 59 -1 59 -19 0
-14 -6 -18 -22 -15 -13 2 -18 2 -11 -1 23 -12 -1 -59 -37 -71 l-33 -11 39 -8
c23 -5 32 -10 22 -12 -10 -3 -18 -11 -18 -18 0 -9 -14 -15 -37 -18 l-38 -4 42
-1 c32 -2 41 -5 37 -16 -9 -24 26 -31 126 -25 106 6 103 10 -10 12 -54 2 -75
6 -75 15 0 7 -5 16 -12 20 -8 5 -6 13 7 29 14 18 19 20 24 8 3 -9 0 -15 -9
-15 -8 0 -15 -4 -15 -8 0 -5 15 -7 33 -6 l32 3 -30 -8 c-39 -11 -29 -12 85
-11 52 0 102 -4 110 -10 13 -8 13 -10 -2 -10 -22 0 -22 -7 -3 -44 14 -26 14
-31 0 -46 -23 -25 -18 -46 14 -69 36 -26 67 -27 80 -2 8 14 7 22 -4 31 -20 16
-20 60 0 60 18 0 20 31 3 48 -9 9 -8 12 8 13 18 0 18 1 -1 9 -11 4 -30 6 -41
3 -12 -2 -25 0 -28 6 -6 10 5 14 64 25 14 2 3 4 -25 2 -37 -1 -54 3 -68 17
-15 15 -17 21 -6 27 7 5 -10 8 -39 7 -53 -1 -80 12 -67 33 4 6 15 8 25 5 16
-5 18 -1 13 27 -3 18 -10 36 -16 40 -7 4 4 8 23 8 54 1 170 12 220 21 29 5 10
6 -54 2 -71 -4 -97 -2 -92 6 4 6 1 11 -8 11 -10 0 -13 -6 -10 -15 4 -10 0 -15
-15 -15 -12 0 -21 5 -21 11 0 8 -4 8 -14 0 -16 -13 -49 -4 -43 13 2 6 12 10
21 10 9 -1 16 2 16 7 0 5 -4 9 -10 9 -5 0 -10 10 -10 21 0 19 4 21 33 16 33
-5 67 5 51 16 -5 3 -28 4 -52 3 -24 -1 -45 1 -48 6 -3 4 -8 7 -12 7 -4 -1 -17
-4 -28 -6z"/>
<path d="M499 3586 c225 -56 243 -66 201 -111 l-24 -26 29 -29 c40 -40 89 -50
105 -21 9 18 7 26 -9 48 -27 33 -26 35 6 51 38 17 63 15 64 -5 0 -11 3 -13 6
-5 2 6 23 13 46 13 36 2 32 3 -27 13 -43 7 -71 16 -74 25 -3 10 1 12 17 8 11
-3 21 -2 21 3 0 4 -19 10 -42 14 -24 3 -79 13 -123 21 -44 8 -82 15 -84 15 -2
0 4 -9 14 -20 19 -21 14 -26 -13 -11 -9 5 -32 11 -50 14 -61 10 -54 20 13 19
20 -1 13 4 -25 13 -55 14 -77 12 -50 -5 26 -17 -19 -12 -98 10 -39 11 -80 20
-89 19 -10 -1 74 -24 186 -53z"/>
<path d="M5617 3633 c-33 -9 -73 -33 -54 -33 35 0 14 -36 -28 -46 -17 -4 -35
-10 -41 -15 -6 -5 -17 0 -27 12 -13 14 -14 21 -5 23 35 11 40 16 15 12 -21 -2
-27 0 -23 10 9 23 -38 21 -61 -2 -18 -17 -33 -18 -33 -1 0 8 -3 7 -10 -3 -6
-9 -5 -20 3 -29 9 -11 9 -13 0 -8 -6 4 -22 2 -35 -3 -21 -10 -21 -10 -1 -6 16
3 23 -2 27 -20 4 -13 13 -24 20 -24 8 0 16 -8 18 -18 5 -16 -11 -23 -131 -50
-184 -42 -216 -48 -207 -33 4 6 3 11 -2 11 -6 0 -12 -7 -16 -15 -3 -8 -16 -15
-28 -15 -13 0 -30 -5 -38 -10 -13 -9 -13 -10 0 -9 8 0 44 6 80 14 78 17 83 18
76 6 -5 -8 -86 -31 -126 -36 -8 -1 -22 -5 -30 -8 -8 -3 -28 -8 -45 -11 -16 -3
-64 -13 -105 -21 -41 -9 -87 -19 -102 -22 -16 -3 -28 -9 -28 -14 0 -4 20 -2
45 5 56 17 51 5 -5 -14 l-41 -13 7 -178 7 -177 -24 -5 c-22 -4 -22 -4 4 -6 16
0 27 -6 26 -13 -1 -7 -1 -46 0 -86 l1 -74 30 7 c17 4 30 4 30 2 0 -16 -36 -37
-63 -38 -26 -1 -28 -3 -8 -6 24 -5 51 -25 51 -39 0 -4 8 -13 18 -20 16 -12 16
-14 -3 -29 -20 -16 -19 -16 5 -10 59 16 85 18 74 5 -7 -6 -48 -16 -91 -22 -53
-7 -80 -15 -80 -23 0 -9 8 -10 27 -5 l27 8 4 -82 c2 -44 4 -133 4 -196 l0
-115 -50 -5 c-41 -4 -50 -9 -52 -25 -1 -16 -1 -16 3 -2 6 20 64 25 64 5 0 -10
3 -9 9 1 7 11 9 11 14 0 4 -10 6 -8 6 4 1 11 6 15 12 11 7 -4 9 -22 6 -46 -3
-22 -3 -64 0 -94 5 -50 7 -53 29 -48 21 5 23 3 19 -23 -14 -90 -16 -117 -7
-104 6 8 12 9 16 3 10 -16 -31 -25 -104 -24 -73 1 -103 -9 -82 -30 9 -9 12 -8
12 6 0 11 6 16 18 14 13 -2 21 -23 33 -83 l16 -80 -1 72 c-1 39 1 73 4 76 3 2
23 7 45 10 22 3 32 3 21 0 -17 -4 -18 -13 -12 -94 5 -82 1 -101 -18 -81 -15
14 -31 7 -43 -20 -11 -27 -15 -28 -79 -28 -37 0 -65 -3 -61 -6 3 -3 30 -6 60
-5 32 0 62 -6 73 -14 18 -13 18 -14 -4 -8 -14 3 -30 -1 -41 -11 -15 -14 -20
-14 -24 -4 -3 7 -6 -8 -6 -34 l-1 -48 70 0 c77 0 85 8 54 55 -14 22 -15 25 -1
25 8 0 18 6 20 13 5 10 11 -45 10 -81 -1 -10 14 -13 60 -10 l62 3 10 -180 c7
-123 7 -182 0 -187 -9 -7 -20 131 -24 300 l-1 52 -182 -5 c-101 -3 -219 -8
-263 -11 l-80 -5 5 -157 5 -157 203 -3 c123 -1 202 -6 202 -12 0 -14 -407 -13
-415 1 -4 5 -9 91 -12 190 l-6 179 -31 1 c-30 2 -30 2 -3 6 27 4 30 8 30 38 0
155 -4 195 -17 195 -14 0 -43 -67 -33 -76 3 -3 10 11 17 31 7 20 14 34 17 32
6 -6 -37 -149 -48 -161 -14 -15 -11 10 5 49 8 19 11 35 6 35 -4 0 -16 -24 -26
-52 -9 -29 -19 -59 -22 -65 -2 -7 1 -13 7 -13 6 0 11 7 11 15 0 8 4 15 9 15 5
0 4 -17 -1 -40 -6 -22 -15 -40 -20 -40 -5 0 -6 10 -3 21 6 19 4 21 -19 17 -19
-4 -24 -2 -17 6 10 12 101 266 101 282 0 5 -26 8 -57 7 -32 0 -46 1 -30 4 15
2 25 8 23 12 -3 4 13 6 34 4 24 -2 40 0 40 6 0 6 -22 11 -50 11 -27 0 -50 2
-50 4 0 19 25 66 35 66 7 0 21 3 31 7 13 5 16 3 12 -9 -9 -21 10 -38 42 -38
34 0 60 20 63 47 1 15 5 19 13 13 8 -7 8 -19 0 -44 -8 -26 -17 -36 -38 -40
-15 -3 -28 -11 -28 -17 0 -8 4 -8 15 1 10 9 15 9 15 1 0 -6 9 -11 20 -11 17 0
20 -7 21 -47 1 -27 3 -60 5 -75 1 -16 -2 -28 -7 -28 -5 0 -3 -10 4 -22 8 -13
25 -56 38 -95 22 -71 24 -73 55 -73 19 0 34 6 38 15 8 22 9 215 1 258 l-7 37
28 -10 c36 -14 54 -6 53 22 0 17 -2 19 -7 7 -6 -12 -11 -13 -27 -4 -31 16 -31
38 0 33 27 -6 30 -1 16 21 -5 8 -18 12 -29 9 -23 -6 -33 -1 -49 29 -17 30 -16
46 2 39 8 -3 15 -1 15 4 0 6 16 10 35 10 25 0 35 -4 35 -16 0 -8 4 -13 10 -9
5 3 6 13 3 22 -5 12 -16 14 -60 10 l-55 -6 7 27 c5 22 4 25 -6 15 -7 -7 -21
-13 -31 -13 -10 0 -20 -10 -24 -25 -3 -14 -13 -25 -21 -25 -8 0 -11 5 -8 10 4
6 -12 10 -42 10 -66 0 -124 -11 -117 -21 3 -5 -6 -9 -19 -9 -14 0 -27 7 -31
15 -4 11 -20 15 -56 15 -27 0 -50 -4 -50 -9 0 -14 -58 -23 -180 -25 -63 -2
-150 -6 -192 -10 -42 -4 -83 -4 -90 1 -7 4 -20 8 -28 9 -67 5 -31 9 205 25
149 9 323 21 387 25 l117 7 -6 83 -6 83 44 4 44 4 -41 1 -41 2 -6 128 c-4 70
-7 159 -7 198 0 80 3 84 71 84 35 0 39 -2 39 -26 0 -53 64 -81 99 -42 17 17
24 20 30 10 12 -20 22 54 11 82 -10 28 -55 39 -102 26 -18 -6 -42 -9 -53 -9
-17 1 -17 2 -2 6 24 6 22 33 -3 33 -13 0 -20 -7 -20 -18 0 -16 -13 -21 -82
-31 -46 -6 -100 -11 -121 -10 l-37 2 28 28 c15 15 39 29 52 32 24 4 24 4 -2 6
-34 1 -37 18 -5 24 15 3 12 4 -7 3 -16 -1 -31 4 -33 10 -2 7 21 14 64 18 l68
7 -2 87 c-1 48 -4 170 -8 272 l-6 185 -57 -2 c-31 -1 -79 -7 -107 -13 -134
-28 -255 -46 -255 -39 0 5 12 11 28 15 50 11 47 14 -8 8 -76 -9 -191 -32 -160
-33 14 0 45 4 69 10 40 9 62 6 49 -6 -5 -6 -171 -35 -197 -35 -22 0 0 17 29
24 14 2 -2 2 -35 -1 l-59 -5 43 44 c37 36 41 44 25 47 -11 1 -26 9 -35 17 -14
12 -19 12 -40 -3 -41 -31 -68 -43 -91 -43 -18 0 -20 -2 -9 -9 9 -6 22 -6 34 1
10 5 21 7 25 4 3 -3 0 -6 -6 -6 -19 0 -14 -28 9 -43 19 -14 20 -15 2 -21 -10
-3 -49 -10 -88 -16 -38 -6 -72 -14 -75 -17 -3 -3 14 -3 37 1 56 8 83 -16 83
-74 0 -22 2 -40 5 -40 3 0 68 32 145 70 77 39 140 68 140 66 0 -11 -226 -159
-256 -168 -33 -9 -34 -10 -34 -63 0 -54 0 -55 25 -43 19 9 29 7 50 -6 25 -16
28 -16 73 6 26 12 50 23 54 23 3 0 10 3 14 8 4 4 13 7 19 7 7 0 39 12 71 27
33 15 61 27 64 28 3 1 12 5 20 8 8 4 86 25 173 47 86 22 169 45 184 51 14 5
28 8 30 6 2 -2 -135 -64 -304 -137 -310 -134 -473 -223 -473 -259 0 -9 -3 -33
-6 -54 -7 -37 -7 -37 20 -27 35 13 36 13 36 -5 0 -10 -10 -15 -30 -15 -16 0
-30 -4 -30 -9 0 -4 12 -6 26 -3 23 4 25 2 20 -16 -5 -14 -1 -25 14 -35 11 -7
17 -17 13 -20 -9 -9 63 -8 112 2 l40 9 -47 1 c-53 1 -58 8 -27 34 15 13 29 16
51 12 20 -5 28 -4 24 3 -3 6 2 13 11 16 10 3 -4 3 -32 1 -50 -5 -54 9 -5 18
18 3 15 5 -12 6 -81 3 -31 19 120 40 239 32 286 36 278 23 -4 -7 -14 -12 -22
-12 -8 0 -14 -4 -14 -9 0 -5 10 -7 22 -3 14 3 19 2 14 -6 -4 -7 -14 -12 -22
-12 -10 0 -4 -11 16 -29 23 -21 28 -30 18 -35 -7 -3 6 -5 30 -3 25 1 41 -2 39
-8 -2 -5 -48 -15 -103 -22 -125 -15 -124 -15 -124 -3 0 6 12 11 28 11 24 2 25
2 4 6 -13 3 -32 -2 -42 -12 -17 -15 -63 -23 -353 -56 -60 -7 -104 -15 -98 -18
6 -4 13 -62 16 -129 5 -102 4 -122 -8 -122 -8 0 -17 9 -20 21 -4 16 -12 20
-39 16 -23 -3 -32 -8 -30 -20 1 -8 -1 -18 -6 -21 -18 -11 0 -56 24 -62 28 -7
62 15 58 39 -1 9 4 17 12 17 10 0 14 -15 14 -59 0 -57 -1 -60 -27 -64 l-28 -4
28 -2 c27 -1 27 -1 27 -76 l0 -75 30 0 c27 0 30 -3 27 -27 -4 -37 -17 -56 -47
-71 -25 -12 -25 -12 5 -8 17 3 37 1 45 -5 12 -7 11 -9 -5 -9 -11 0 -26 -4 -33
-9 -8 -4 10 -7 43 -7 73 1 71 -12 -2 -16 l-58 -3 -5 -80 c-3 -44 -4 -87 -2
-95 2 -8 29 -34 60 -58 55 -41 153 -125 122 -104 -8 5 -26 9 -40 7 -14 -1 -42
-3 -63 -4 -21 0 -36 -5 -33 -9 2 -4 -5 -9 -17 -9 -17 -2 -19 0 -7 7 10 7 11
10 3 10 -7 0 -14 12 -14 28 -1 15 -5 5 -8 -23 -3 -27 -3 -84 0 -125 3 -41 6
-67 7 -56 2 17 4 16 22 -7 11 -14 20 -33 20 -42 0 -13 -6 -15 -32 -10 -18 4
-29 4 -25 -1 4 -5 78 -7 162 -5 151 3 155 2 155 -18 0 -20 -6 -21 -87 -21 -49
0 -83 -4 -78 -8 6 -4 21 -20 34 -35 l24 -27 -24 0 c-18 0 -20 3 -10 9 11 7 8
13 -17 28 -18 11 -29 23 -25 26 3 4 -24 7 -60 8 -37 0 -83 1 -102 1 -19 1 -38
-2 -42 -5 -3 -4 27 -8 68 -8 55 -1 66 -3 44 -9 -16 -4 -22 -8 -12 -9 9 0 17
-6 17 -12 0 -8 5 -8 15 1 13 10 15 9 15 -9 0 -17 -6 -21 -35 -21 -25 0 -35 4
-35 16 0 10 -6 14 -15 10 -9 -3 -15 0 -15 10 0 8 -4 13 -10 9 -5 -3 -6 -13 -3
-23 5 -14 3 -15 -8 -4 -16 15 -29 16 -29 1 0 -5 5 -7 10 -4 6 3 10 1 10 -4 0
-14 -17 -14 -25 -1 -4 6 -12 4 -21 -5 -9 -8 -21 -12 -27 -8 -7 4 -6 8 3 11 8
3 18 10 22 15 10 17 8 117 -3 117 -7 0 -9 31 -7 80 2 62 0 79 -10 75 -19 -7
-62 16 -62 34 0 9 -5 23 -11 31 -8 11 -9 7 -6 -18 2 -18 -1 -36 -6 -39 -5 -3
-42 -6 -81 -6 -66 0 -67 0 -13 -4 40 -3 55 -8 51 -15 -4 -7 -7 -31 -5 -55 l2
-43 -46 0 -45 0 0 43 c-1 70 -41 99 -103 74 -33 -14 -34 -14 -44 12 -10 27
-12 28 -144 39 -74 7 -144 14 -157 17 -17 3 -33 -7 -64 -41 -23 -25 -56 -52
-72 -60 -28 -14 -29 -14 -12 1 11 8 24 15 29 15 5 0 4 7 -3 15 -11 13 -10 14
5 9 13 -5 16 -4 11 5 -4 6 -2 20 6 29 11 15 11 16 -3 4 -14 -10 -18 -10 -23 3
-4 11 -2 14 6 9 7 -4 8 -3 4 5 -4 7 2 14 15 19 12 5 18 11 13 15 -6 3 -48 -25
-95 -63 -46 -38 -86 -67 -88 -65 -2 2 12 17 30 32 18 15 67 59 109 96 75 69
130 109 101 74 -7 -10 -10 -17 -6 -17 4 0 2 -7 -5 -15 -7 -9 -10 -18 -6 -22 3
-3 6 0 6 8 0 12 2 11 11 -1 9 -13 10 -12 5 3 -4 14 1 17 25 17 17 0 28 -4 24
-10 -3 -5 0 -7 8 -4 12 4 57 -2 142 -19 6 -2 16 -6 24 -11 12 -8 13 12 7 125
-5 99 -4 129 4 116 6 -9 16 -15 21 -11 5 3 26 -7 46 -22 20 -15 33 -21 28 -13
-13 21 20 -5 65 -50 l35 -36 6 55 c3 30 5 69 5 85 -1 30 -2 30 -66 35 -113 9
-37 20 89 13 107 -5 118 -4 125 12 3 10 4 20 1 23 -3 3 -5 0 -5 -6 0 -7 -14
-12 -32 -11 -18 1 -25 3 -15 6 19 5 23 28 6 38 -6 4 -8 13 -5 21 8 21 -28 36
-59 24 -24 -9 -27 -15 -23 -50 l4 -40 -59 0 c-52 0 -58 2 -52 18 4 9 10 26 13
37 3 11 10 24 16 28 8 6 7 10 -1 14 -27 10 -11 23 27 23 l40 0 1 88 c1 48 0
101 -1 117 -1 17 1 99 5 183 l7 152 68 0 c45 0 70 -4 73 -12 4 -9 6 -8 6 2 1
29 -14 37 -79 42 -64 5 -64 5 -25 -8 38 -12 34 -13 -68 -13 -70 -1 -106 3
-102 9 3 6 16 10 28 11 12 0 17 3 10 5 -9 4 -9 11 0 31 10 22 15 24 51 19 69
-9 80 -10 111 -1 26 7 27 9 10 16 -16 6 -17 8 -3 8 9 1 19 5 22 10 4 5 -3 7
-14 4 -11 -3 -20 0 -20 6 0 6 -15 11 -34 11 -26 0 -36 -5 -41 -20 -5 -16 -15
-20 -48 -19 -23 0 -36 3 -29 6 10 4 10 8 1 19 -9 11 -6 14 17 15 16 1 37 1 47
0 14 -2 17 6 17 43 l0 45 -37 -16 c-83 -34 -129 -62 -142 -87 -9 -16 -24 -26
-45 -29 -29 -4 -29 -4 6 -5 44 -2 56 -17 34 -41 -16 -18 -12 -31 8 -31 6 0 5
4 -2 9 -11 7 -11 9 2 14 10 4 16 1 16 -7 0 -8 6 -17 13 -19 6 -3 -10 -6 -36
-6 -27 -1 -46 -5 -43 -9 2 -4 -130 -32 -295 -62 l-299 -54 0 -77 0 -77 37 8
c20 5 40 7 43 5 3 -2 4 -20 2 -39 l-4 -35 -35 14 c-48 20 -53 19 -53 -10 0
-23 -4 -24 -62 -28 l-63 -3 64 -2 63 -2 -7 -86 -7 -86 89 5 c48 2 72 3 53 1
-66 -8 -85 -14 -69 -25 11 -7 9 -9 -8 -10 -36 -2 -41 -3 -49 -12 -4 -4 11 -6
33 -4 40 3 41 3 32 -22 -6 -16 -6 -28 1 -35 17 -17 11 -25 -22 -29 -31 -4 -30
-4 4 -3 20 0 40 -3 44 -7 4 -4 -20 -7 -54 -7 -57 0 -62 -2 -63 -22 0 -13 -2
-66 -5 -118 -2 -52 -6 -125 -7 -162 -2 -38 -6 -71 -10 -74 -3 -3 -3 -12 0 -20
3 -8 2 -30 -1 -49 -5 -25 -12 -35 -25 -35 -10 0 -21 -9 -24 -20 -4 -15 -14
-20 -36 -20 -29 0 -31 -3 -30 -32 2 -31 2 -31 6 -5 5 30 22 37 24 10 1 -10 1
-21 0 -25 0 -5 4 -8 9 -8 6 0 10 -4 10 -8 0 -19 -56 1 -67 24 -7 16 -8 22 0
17 7 -4 8 0 4 11 -4 10 -7 33 -7 52 0 20 -4 33 -9 29 -5 -3 -12 7 -14 22 -3
25 -4 24 -3 -4 0 -33 -27 -73 -50 -73 -8 0 -16 -12 -20 -27 -12 -56 -12 -56
-50 -25 -23 19 -43 28 -55 25 -22 -6 -59 22 -59 44 0 7 7 13 15 13 9 0 15 9
15 23 0 12 7 117 15 232 8 116 15 218 15 228 0 14 -10 17 -65 17 -36 0 -65 4
-65 8 0 4 42 4 93 0 164 -13 151 -9 158 -48 l6 -35 2 42 c0 23 6 45 11 48 6 4
8 15 5 26 -13 39 3 59 46 59 21 0 39 -5 39 -11 0 -5 5 -7 10 -4 23 14 7 24
-42 27 -52 3 -53 4 -59 38 -6 30 -7 31 -8 8 -1 -22 -6 -28 -23 -29 -18 -1 -17
-3 7 -8 l30 -7 -28 -6 c-15 -3 -30 -1 -33 3 -3 5 -45 9 -93 9 -48 0 -91 4 -96
9 -17 15 -83 23 -90 10 -5 -7 -36 -9 -100 -4 -64 5 -95 4 -99 -4 -5 -8 14 -12
61 -13 37 -1 77 -3 88 -4 11 -1 25 -2 31 -3 6 -1 10 -17 10 -36 l-1 -35 -106
0 c-59 0 -121 3 -138 6 -27 6 -30 9 -19 22 11 14 10 15 -7 8 -11 -5 -30 -11
-42 -13 -18 -4 -20 -8 -10 -18 9 -8 63 -14 173 -17 90 -2 168 -9 179 -16 15
-8 2 -9 -60 -5 l-80 6 30 -33 c23 -26 26 -31 10 -25 -65 26 -92 34 -110 35
-11 1 -14 4 -7 7 29 12 8 23 -45 23 -97 0 -284 13 -278 19 3 3 43 5 88 4 80
-1 78 1 -10 13 -46 6 -53 17 -26 46 9 11 11 18 5 18 -7 0 -12 4 -12 9 0 5 23
9 52 8 47 -2 53 -5 58 -27 10 -40 82 -40 95 1 4 12 12 18 21 15 7 -3 16 -1 19
4 5 9 -9 14 -18 8 -2 -2 -10 2 -18 9 -10 8 -43 11 -101 8 -68 -4 -88 -1 -98
10 -14 16 -95 21 -104 6 -3 -5 -22 -7 -42 -4 -28 4 -35 2 -31 -9 2 -7 10 -12
17 -10 7 2 26 0 42 -3 23 -5 27 -10 18 -20 -6 -8 -19 -11 -28 -8 -11 4 -9 -2
8 -18 23 -22 23 -24 5 -28 -10 -2 -74 0 -141 4 -99 6 -122 10 -117 21 3 8 0
14 -6 14 -6 0 -11 -7 -11 -16 0 -14 -8 -16 -48 -10 -44 6 -50 4 -61 -18 -13
-23 -21 -107 -10 -100 3 2 16 -6 27 -17 22 -20 53 -21 83 -4 20 12 34 70 20
80 -6 3 -11 14 -11 24 0 15 8 17 48 15 106 -7 228 -14 240 -14 6 0 12 -3 12
-7 0 -5 -31 -7 -70 -5 -41 2 -70 0 -70 -6 0 -5 -7 -73 -15 -151 -14 -137 -36
-212 -69 -233 -6 -4 -8 -8 -3 -8 4 0 -11 -36 -33 -80 -22 -44 -40 -91 -40
-105 0 -20 -5 -25 -25 -25 -19 0 -25 5 -25 21 0 19 -3 20 -27 13 -40 -13 -517
-7 -521 6 -2 5 -11 10 -19 10 -11 0 -13 4 -6 13 6 6 8 21 6 32 -3 11 -5 40 -5
64 0 28 -4 38 -9 30 -5 -8 -9 -22 -9 -31 0 -9 -5 -20 -12 -24 -8 -5 -9 -2 -5
9 3 9 9 47 13 84 7 83 14 93 15 27 1 -27 3 -41 6 -31 2 9 13 17 23 17 17 0 20
-9 22 -87 3 -90 10 -103 43 -79 16 11 17 16 7 29 -8 9 -12 38 -11 71 2 49 5
56 23 56 19 0 21 -7 24 -58 5 -108 7 -112 63 -112 l49 0 0 48 c0 26 3 64 6 85
6 34 9 37 41 37 33 0 34 0 29 -37 l-5 -38 10 36 c10 36 11 36 57 31 26 -2 44
-1 40 3 -4 4 -34 10 -65 12 -32 3 -59 6 -61 7 -1 2 9 92 23 201 14 108 25 199
25 201 0 2 -15 4 -32 4 -57 0 -115 12 -94 20 19 6 171 -12 181 -22 3 -3 -3
-48 -13 -101 -10 -53 -15 -94 -11 -92 4 3 13 38 19 78 18 104 24 117 58 117
15 0 33 -5 39 -11 7 -7 12 -6 17 6 6 17 -15 30 -37 22 -8 -3 -20 -1 -28 5 -11
8 -10 9 4 4 11 -4 18 0 19 12 1 9 2 24 4 32 1 8 2 21 3 28 1 6 5 12 10 12 19
0 39 -30 35 -52 -5 -23 -5 -23 6 0 5 13 8 28 4 33 -3 5 0 9 5 9 6 0 11 4 11 9
0 5 -51 12 -113 16 -157 10 -154 10 -169 22 -7 6 -34 13 -59 17 -36 5 -49 3
-59 -9 -8 -9 -16 -12 -19 -6 -3 5 -49 12 -101 15 -52 3 -119 8 -148 12 -31 4
-52 2 -52 -4 0 -5 10 -9 22 -8 13 1 37 -2 53 -6 17 -5 54 -10 83 -13 28 -2 57
-7 62 -10 12 -7 13 -35 2 -35 -23 0 -5 -29 21 -34 35 -7 48 -1 19 8 -14 5 -19
15 -19 34 2 35 13 42 42 28 24 -11 41 -49 30 -66 -3 -4 1 -11 7 -13 26 -11
-81 -6 -202 8 -136 16 -192 18 -120 4 54 -11 274 -38 313 -39 15 0 27 -4 27
-8 0 -7 -226 8 -342 22 l-38 4 0 -176 c0 -105 4 -171 9 -163 10 15 31 6 31
-13 0 -8 -8 -13 -17 -12 -17 1 -18 -17 -21 -221 -3 -194 -1 -223 12 -223 23 0
30 -19 9 -28 -11 -4 -18 -18 -18 -35 -1 -23 4 -29 27 -34 32 -6 28 -23 -7 -23
-23 0 -24 -2 -24 -89 0 -81 1 -89 22 -99 l22 -11 -22 -7 c-13 -3 -23 -13 -23
-21 0 -13 3 -13 16 -2 14 12 15 7 10 -42 -4 -29 -10 -55 -15 -57 -5 -2 -10
-138 -10 -303 l-2 -300 598 4 c452 3 639 8 768 21 94 9 242 21 330 26 329 21
689 50 694 56 3 3 4 104 3 225 l-4 219 22 0 c24 0 24 29 4 -342 l-6 -108 58 5
c33 3 340 28 684 56 344 27 803 65 1020 84 217 19 481 42 585 50 105 8 343 28
530 45 187 16 378 32 425 35 47 4 215 17 375 31 159 13 295 24 302 24 10 0 13
65 13 315 l0 316 -22 8 c-12 4 -27 23 -34 42 -7 21 -17 33 -26 31 -12 -2 -17
13 -22 63 -4 36 -9 71 -12 79 -4 10 3 16 23 19 27 4 27 4 -4 6 -24 1 -33 -3
-33 -15 0 -11 -6 -14 -17 -10 -14 5 -13 2 4 -12 15 -13 23 -36 28 -74 l7 -56
-131 5 c-124 4 -131 4 -124 -14 4 -10 11 -21 17 -25 8 -6 7 -11 -2 -17 -11 -7
-11 -11 2 -23 8 -9 12 -18 9 -21 -7 -8 39 -19 63 -17 35 4 54 0 54 -11 0 -8
-21 -10 -71 -5 -49 5 -69 4 -64 -3 7 -12 -43 -131 -55 -131 -10 0 -4 45 9 79
9 22 10 50 2 119 0 6 -5 12 -10 12 -5 0 -8 -16 -5 -35 2 -19 1 -35 -4 -35 -7
0 -12 18 -15 61 -1 10 -8 14 -18 12 -11 -3 -19 3 -23 15 -4 11 -15 22 -26 25
-14 4 -20 16 -23 53 -3 45 -4 44 -5 -14 -2 -61 -1 -63 20 -56 20 6 21 5 6 -10
-9 -9 -25 -16 -35 -17 -16 0 -16 -1 2 -9 14 -5 24 -3 32 7 7 9 13 11 18 4 3
-6 1 -11 -4 -11 -6 0 -11 -11 -11 -25 0 -14 -5 -25 -10 -25 -6 0 -9 5 -8 12 2
7 -2 12 -9 13 -7 0 -21 8 -32 17 -24 21 -57 38 -90 49 -20 5 -12 7 31 8 31 1
60 5 63 11 3 5 1 27 -5 49 -13 49 -20 188 -9 169 7 -10 9 -10 9 1 0 23 18 0
23 -29 4 -21 4 -20 6 7 l1 32 63 4 c59 4 59 4 -10 3 l-72 -1 6 30 c7 38 4 37
41 23 27 -11 34 -10 49 5 16 16 16 18 -5 40 -33 35 -29 57 11 58 l32 2 -35 6
-35 7 34 8 c29 7 32 10 18 23 -23 23 -126 21 -143 -2 -19 -25 -30 -11 -18 23
7 19 16 26 29 24 16 -2 17 -1 5 7 -12 9 -6 27 40 121 30 60 58 110 62 110 4 0
8 7 8 15 0 17 -4 17 -260 -1 -104 -7 -106 -6 -107 15 -1 15 3 21 11 18 16 -6
16 24 1 35 -16 12 -3 16 60 19 52 4 60 2 59 -13 -1 -10 4 -18 12 -18 8 0 14
-4 14 -10 0 -12 59 -13 77 -2 17 11 24 63 11 79 -14 18 -79 16 -106 -3 -12 -8
-27 -12 -32 -9 -6 3 -10 1 -10 -4 0 -6 -17 -10 -37 -10 -38 1 -38 1 -8 9 l30
8 -36 1 c-20 0 -42 8 -49 16 -11 13 -7 15 27 15 22 0 68 3 102 6 l61 7 0 38
c0 25 -5 39 -12 39 -33 0 -453 -119 -456 -129 -2 -6 3 -11 12 -11 9 0 16 5 16
10 0 14 27 12 33 -2 4 -9 6 -7 6 3 1 13 19 18 92 25 50 5 93 6 95 2 3 -4 -13
-8 -34 -8 -23 0 -45 -6 -52 -15 -7 -8 -29 -16 -49 -16 -21 -1 -28 -3 -16 -6
11 -3 26 -10 32 -15 7 -6 20 -8 28 -4 18 6 18 5 5 -28 -8 -22 -16 -26 -50 -26
-36 0 -40 2 -40 25 0 20 5 25 28 26 25 1 24 2 -8 10 -19 5 -94 6 -167 2 -104
-5 -138 -10 -160 -24 -21 -14 -23 -19 -10 -19 11 0 17 -8 17 -23 0 -16 9 -28
28 -38 l27 -13 -33 -4 c-18 -2 -30 -7 -27 -12 3 -5 -11 -7 -32 -5 -21 1 -68 3
-105 4 -53 1 -68 4 -68 16 0 8 7 15 15 15 14 0 19 11 16 36 -2 14 77 24 99 14
9 -5 21 -2 29 8 13 13 12 14 -13 8 -18 -4 -25 -3 -21 4 4 6 -6 10 -25 10 -18
0 -29 -4 -25 -10 10 -16 -15 -12 -31 5 -9 9 -35 15 -62 16 -87 2 1 16 182 29
142 11 170 10 177 -1 5 -8 9 -9 9 -3 0 18 31 26 46 13 11 -9 14 -8 14 4 0 10
13 20 33 25 17 5 126 33 240 62 l208 54 -3 61 -3 60 40 6 40 6 -42 2 c-37 1
-43 4 -43 24 -1 42 -28 308 -32 313 -3 2 -146 -16 -319 -41 -172 -25 -319 -44
-325 -43 -8 2 -4 19 12 52 l23 48 -34 -6 c-53 -10 -42 9 13 22 l47 11 -45 -5
c-31 -3 -42 -2 -35 5 13 13 63 17 93 7 20 -7 21 -10 10 -24 -12 -16 -11 -16 7
-1 13 11 31 15 53 12 19 -3 32 -1 32 5 0 7 13 9 34 5 25 -4 35 -1 40 12 5 14
2 16 -16 11 -13 -3 -54 -8 -93 -11 -60 -4 -64 -3 -25 5 87 17 126 28 102 29
-13 1 -21 5 -18 10 4 5 -6 19 -21 31 l-28 21 35 -18 c19 -9 38 -16 43 -15 4 1
7 -3 7 -8 0 -13 31 -13 50 0 11 8 8 9 -12 4 -16 -3 -28 -3 -28 0 0 6 67 36 81
36 16 0 9 -18 -8 -23 -15 -4 -14 -5 3 -6 11 0 29 -8 40 -16 18 -14 18 -14 -6
-15 -14 -1 -19 -4 -11 -7 7 -3 63 3 125 13 61 10 103 20 94 22 -14 3 -15 8 -8
28 5 13 6 24 2 24 -4 0 -13 -13 -19 -30 -10 -25 -17 -30 -46 -30 -20 0 -42 -3
-51 -6 -25 -10 -19 10 14 45 31 32 52 37 137 32 51 -3 100 24 82 45 -9 11 -8
14 2 14 7 0 3 7 -10 16 -23 17 -79 20 -132 9 -47 -10 -33 2 22 20 l52 17 -6
84 c-4 79 -4 83 17 87 l21 4 -22 2 c-23 1 -22 -1 -39 190 -7 80 1 67 -110 187
-7 8 -23 9 -50 4 -64 -13 -157 -37 -186 -49 -16 -6 -28 -7 -28 -3 0 4 -4 2 -8
-4 -6 -11 -552 -224 -573 -224 -5 0 -9 6 -9 14 0 9 7 12 19 9 10 -2 38 6 62
18 24 13 55 24 68 26 13 1 27 6 30 10 7 9 23 16 230 89 148 52 200 75 136 60
-16 -4 -27 -5 -23 -1 7 7 222 63 268 70 14 3 68 15 120 28 52 13 100 20 105
16 6 -4 17 -4 24 1 15 9 41 3 41 -10 0 -10 -117 -33 -130 -25 -5 3 -29 0 -52
-6 l-43 -12 40 -9 c25 -5 47 -5 60 1 22 12 100 30 128 31 9 0 17 -7 17 -15 0
-8 4 -15 9 -15 5 0 13 -21 19 -47 8 -41 10 -43 12 -18 1 17 2 33 1 38 0 4 7 7
17 7 28 0 86 48 94 77 9 33 3 40 -18 22 -15 -12 -16 -11 -10 19 5 20 4 32 -3
32 -6 0 -8 -7 -4 -16 5 -14 3 -14 -15 -3 -11 7 -19 16 -16 20 2 4 -7 9 -21 11
-17 4 -26 0 -30 -12 -6 -19 -72 -50 -103 -49 -12 0 -11 3 6 10 26 10 21 29 -8
29 -11 0 -20 -8 -22 -21 -2 -18 -17 -25 -93 -44 -50 -12 -112 -25 -138 -29
-47 -7 -48 -7 -37 14 8 16 19 21 35 17 14 -2 26 1 29 8 4 12 44 23 120 32 22
2 48 9 59 14 15 9 16 13 6 26 -11 13 -10 18 6 29 17 13 16 14 -16 13 -19 -1
-42 -3 -52 -6z m-161 -790 c-1 -2 -74 -14 -161 -28 -88 -14 -161 -27 -162 -29
-2 -2 5 -6 17 -9 11 -3 20 -2 20 3 0 4 16 10 35 12 19 2 35 0 35 -4 0 -14 44
-8 89 12 53 24 83 26 75 5 -4 -8 -17 -15 -30 -15 -13 0 -24 -4 -24 -10 0 -5 6
-7 14 -4 8 3 17 1 20 -5 7 -11 -52 -27 -62 -16 -3 3 0 11 8 16 11 8 7 9 -15 5
-81 -15 -245 -34 -288 -34 -26 0 -54 -5 -62 -12 -18 -15 -107 -19 -112 -5 -3
9 190 46 239 45 9 0 20 4 23 10 3 6 -1 7 -9 4 -9 -3 -16 -2 -16 4 0 35 103 57
262 57 58 0 105 -1 104 -2z m-2756 -931 c93 -38 148 -55 178 -54 43 0 53 -13
30 -36 -9 -9 -9 -12 1 -12 9 0 11 -8 8 -22 -4 -14 0 -29 10 -40 15 -17 11 -18
-103 -17 -99 0 -239 14 -181 18 10 1 17 9 17 21 0 14 7 20 21 20 11 0 17 5 14
10 -6 9 29 15 63 11 6 -1 12 3 12 9 0 7 -18 10 -45 8 -25 -2 -45 -6 -45 -10 0
-4 -12 -1 -26 7 -15 8 -36 10 -48 6 -28 -9 -166 -2 -166 9 0 12 74 22 135 19
28 -2 84 -2 125 0 l75 3 -94 20 c-121 25 -141 33 -141 56 0 10 -6 24 -12 31
-19 19 12 9 172 -57z m3181 -52 c21 0 39 -2 39 -5 0 -11 -115 -235 -121 -235
-4 0 -10 50 -14 111 l-7 112 -87 -6 c-51 -3 -76 -2 -61 3 14 4 60 8 102 9 52
1 81 6 90 15 7 8 15 10 16 5 2 -5 21 -9 43 -9z m-1798 -48 c-5 -22 23 -58 54
-64 27 -7 -86 -17 -310 -28 -192 -10 -272 -4 -196 15 l34 9 -32 3 c-37 5 -44
22 -13 30 11 3 20 14 20 24 0 11 6 20 13 20 6 1 31 2 54 4 41 2 42 1 36 -25
-4 -23 -1 -28 22 -34 36 -9 75 16 75 48 0 26 0 26 132 25 44 0 79 4 83 10 10
18 35 -13 28 -37z m-1509 -30 c-5 -22 -2 -31 13 -37 17 -7 17 -8 -2 -15 -24
-10 17 -12 216 -10 104 1 138 -2 141 -12 4 -10 -35 -12 -203 -10 -186 2 -237
9 -196 25 6 3 -22 6 -63 6 -52 0 -70 -2 -60 -9 13 -8 12 -10 -2 -10 -21 0 -22
1 -5 32 7 14 19 24 27 23 8 -1 26 2 40 6 24 7 24 7 3 8 -13 1 -23 7 -23 14 0
10 18 14 60 16 l60 2 -6 -29z m-1219 -178 c70 -9 87 -20 83 -52 -3 -31 2 -30
-130 -12 -87 12 -88 12 -88 40 0 33 13 41 55 35 17 -2 53 -7 80 -11z m4569
-790 c9 -24 -13 -33 -94 -37 -79 -3 -78 -3 28 -5 105 -2 112 -3 112 -22 0 -11
-7 -20 -15 -20 -8 0 -15 -9 -15 -20 0 -17 -7 -20 -52 -20 -40 0 -49 -3 -40
-12 16 -16 15 -28 -3 -28 -8 0 -15 9 -15 20 0 17 -7 20 -45 20 -38 0 -45 -3
-45 -19 0 -31 -19 -35 -30 -6 -11 28 -45 32 -45 5 0 -8 -4 -18 -9 -22 -6 -4
-4 -13 3 -22 12 -15 2 -23 -12 -10 -3 3 -36 8 -73 10 -62 3 -104 14 -56 14 15
0 22 6 22 20 0 16 -7 20 -30 20 -26 0 -30 -4 -30 -27 0 -14 -3 -23 -7 -19 -4
4 -8 15 -8 24 0 13 -8 17 -35 16 -19 -1 -87 -2 -151 -4 l-116 -2 5 -24 c2 -14
0 -24 -7 -24 -6 0 -11 11 -11 25 0 16 -6 25 -16 25 -9 0 -14 -6 -11 -13 3 -7
-3 -13 -13 -13 -10 0 -16 4 -14 8 3 4 -11 8 -31 8 -23 0 -34 -4 -30 -11 4 -6
-3 -5 -14 3 -14 8 -24 10 -29 3 -9 -13 -62 -16 -62 -4 0 5 -10 9 -22 8 -19 0
-20 -2 -6 -7 10 -4 -43 -7 -116 -7 -74 0 -137 -3 -140 -6 -3 -3 -1 -20 5 -38
8 -22 8 -36 1 -43 -6 -6 -12 6 -16 36 l-7 46 -220 -6 -219 -7 3 46 c3 28 0 48
-7 50 -8 3 -8 10 1 24 8 14 8 24 1 31 -15 15 43 20 237 21 194 1 227 -5 236
-40 5 -21 7 -22 14 -6 4 9 13 17 21 17 8 0 14 7 14 16 0 13 -3 14 -13 5 -13
-10 -27 -6 -27 9 0 7 426 7 432 0 2 -3 12 -17 21 -32 10 -16 23 -25 31 -22 10
4 16 -3 19 -23 4 -27 4 -27 6 5 1 28 -2 32 -24 32 -14 0 -25 5 -25 10 0 6 5
10 12 10 6 0 3 6 -7 14 -16 12 -11 14 51 17 38 2 171 3 296 3 125 -1 226 1
224 5 -2 3 45 6 105 6 69 0 110 -4 113 -11z m-4004 -36 c0 -5 85 -8 189 -8
104 0 196 -3 205 -6 46 -18 -4 -24 -194 -24 -133 0 -210 4 -210 10 0 6 -20 10
-45 10 -25 0 -45 -4 -45 -10 0 -6 -47 -10 -120 -10 -73 0 -120 4 -120 10 0 6
-20 10 -45 10 -25 0 -45 -4 -45 -10 0 -14 -247 -13 -255 1 -6 9 -77 4 -97 -8
-4 -2 -115 -6 -245 -9 -212 -4 -236 -3 -219 10 13 10 43 15 105 15 271 0 1117
14 1121 19 3 2 -1 7 -7 9 -7 3 -13 9 -13 14 0 5 9 4 20 -3 11 -7 20 -16 20
-20z m1444 21 c28 1 53 4 58 7 4 3 8 -2 8 -11 0 -13 -6 -15 -27 -11 -16 3 -35
2 -43 -4 -11 -7 -2 -10 33 -10 26 0 47 -4 47 -10 0 -5 12 -10 28 -11 15 0 36
-4 47 -9 15 -6 8 -9 -27 -9 -27 -1 -48 -5 -48 -10 0 -4 18 -6 40 -4 33 4 40 2
40 -12 0 -9 -9 -19 -20 -22 -15 -4 -20 -14 -21 -42 -1 -20 -3 -28 -6 -18 -2 9
-8 17 -13 17 -5 0 -11 8 -14 18 -2 9 -4 -1 -3 -22 1 -24 -3 -41 -11 -44 -7 -2
-12 5 -12 18 0 12 -4 18 -10 15 -6 -4 -8 -10 -6 -13 2 -4 -27 -7 -65 -7 -38 0
-70 -4 -72 -8 -1 -5 -88 -10 -192 -12 -242 -5 -515 -14 -627 -21 l-88 -6 2 58
c1 40 3 48 5 24 6 -46 23 -64 23 -24 0 47 11 74 29 74 14 0 17 -8 14 -50 -2
-30 0 -50 6 -50 12 0 20 28 24 79 l2 35 -46 -3 c-36 -2 -46 1 -46 13 0 13 13
15 84 10 l83 -5 0 25 c0 15 -6 26 -17 28 -10 2 153 3 361 2 361 0 379 0 384
18 3 14 10 17 26 12 11 -4 43 -6 70 -5z m-2299 -203 c39 -16 55 -42 55 -85 0
-26 -4 -31 -25 -31 -20 0 -27 6 -32 31 -6 33 -35 50 -78 47 -18 -2 -25 -8 -25
-24 0 -39 -11 -54 -39 -54 -26 0 -26 1 -23 59 4 56 5 60 30 64 58 9 104 6 137
-7z m290 -8 c16 -14 28 -38 32 -61 6 -38 5 -39 -23 -35 -19 2 -30 10 -32 23
-7 33 -23 45 -63 45 -38 0 -39 -1 -39 -35 0 -32 -2 -35 -31 -35 -24 0 -30 3
-25 16 3 9 6 36 6 60 l0 44 74 0 c63 0 79 -4 101 -22z m-794 7 c11 -10 -21
-238 -36 -261 -19 -30 -53 -44 -102 -44 -47 0 -73 24 -73 67 0 30 3 33 29 33
23 0 30 -5 33 -22 3 -26 39 -36 56 -16 5 7 15 60 22 118 6 58 13 111 15 118 4
11 46 17 56 7z m289 -4 c0 -35 -13 -41 -85 -41 l-73 0 -4 -30 -5 -30 74 0 c47
0 72 -4 68 -10 -3 -5 -17 -10 -31 -10 -15 0 -24 -6 -24 -15 0 -10 -10 -15 -32
-15 -43 0 -54 -9 -63 -47 l-7 -33 46 0 c42 0 46 -2 46 -24 0 -21 -5 -24 -71
-30 -40 -3 -74 -4 -77 -1 -6 6 17 275 25 287 6 11 213 10 213 -1z"/>
<path d="M2200 3604 c-26 -13 -37 -23 -27 -24 10 0 16 -4 12 -9 -3 -6 2 -14
10 -19 15 -8 14 -12 -2 -41 l-18 -32 27 -24 c24 -20 25 -24 10 -31 -9 -4 -23
-6 -31 -5 -12 2 -12 1 0 -11 8 -7 28 -13 44 -14 17 0 39 -4 49 -9 12 -5 17 -5
14 1 -8 11 12 39 32 47 11 4 9 6 -6 6 -12 1 -27 -6 -34 -14 -14 -16 -55 -21
-45 -5 3 6 15 10 25 10 25 0 46 38 31 53 -16 16 -13 45 6 56 14 7 15 13 6 34
-9 18 -9 28 0 37 10 10 8 12 -9 8 -12 -3 -27 -2 -35 2 -8 5 -32 -1 -59 -16z"/>
<path d="M4963 3484 c-17 -8 -35 -19 -40 -26 -4 -7 -19 -13 -33 -13 -14 -1
-38 -4 -53 -8 -23 -6 -27 -5 -25 9 4 23 -16 28 -36 9 -9 -9 -25 -17 -36 -18
-13 -1 -19 -6 -15 -15 3 -8 0 -21 -7 -29 -10 -12 -7 -18 12 -34 27 -20 60 -25
60 -9 0 6 14 17 31 24 28 12 29 14 15 29 -15 14 -13 17 19 27 41 14 65 8 65
-15 0 -11 6 -15 18 -11 9 3 51 13 92 23 43 10 66 19 53 21 -12 2 -32 -2 -43
-8 -25 -14 -33 -9 -24 13 6 15 60 37 93 37 8 0 12 3 8 6 -3 4 -27 1 -53 -5
-28 -7 -51 -8 -57 -3 -8 6 -24 4 -44 -4z"/>
<path d="M350 3446 c0 -2 24 -9 53 -16 87 -18 127 -30 127 -38 0 -10 -99 -7
-123 3 -10 4 -21 5 -24 1 -4 -3 1 -6 9 -6 9 0 21 -7 28 -14 9 -12 18 -13 38
-5 15 6 29 11 30 11 7 0 62 -56 62 -63 0 -4 -19 -3 -41 2 -23 6 -47 8 -53 6
-11 -4 83 -27 109 -27 8 0 15 -4 15 -10 0 -5 -4 -10 -9 -10 -14 0 -291 59
-336 72 -78 22 -121 27 -177 21 l-58 -6 0 -48 0 -49 35 0 35 0 -27 -70 c-14
-39 -23 -73 -21 -75 3 -3 36 -12 74 -20 l69 -14 -82 6 c-79 5 -83 4 -83 -15 0
-17 9 -22 45 -28 43 -6 64 -4 125 12 21 6 23 4 13 -7 -20 -21 -15 -29 17 -29
17 0 30 -4 30 -10 0 -5 -5 -10 -11 -10 -6 0 -58 -17 -115 -37 l-104 -37 0 -62
0 -63 53 -10 c28 -6 122 -22 207 -37 85 -15 164 -30 175 -34 19 -8 19 -9 -5
-18 -24 -10 -24 -11 -2 -11 12 -1 22 -5 22 -9 0 -5 -12 -8 -27 -7 -16 1 -21 0
-12 -2 15 -4 39 -43 39 -63 0 -6 -8 -10 -17 -11 -10 0 -3 -5 16 -10 18 -6 31
-12 28 -15 -6 -6 -138 12 -434 61 l-43 8 0 -311 0 -311 43 -5 c23 -3 110 -13
192 -21 83 -9 192 -20 243 -26 51 -7 94 -10 96 -8 2 2 6 23 9 47 4 37 3 42
-11 38 -45 -13 -134 -27 -139 -23 -3 3 13 10 36 16 23 6 58 16 80 21 40 11 46
22 56 120 11 105 17 157 21 171 3 12 -10 18 -61 28 -69 14 -86 25 -57 35 9 3
28 13 42 21 14 8 39 15 56 15 29 0 32 3 38 39 4 26 12 41 24 44 9 3 3 5 -15 6
-72 2 -199 41 -137 41 16 0 17 2 4 10 -13 8 -13 10 1 10 9 0 19 9 22 20 3 14
14 20 34 21 l28 1 -25 9 c-21 7 -19 8 13 4 20 -2 37 0 37 6 0 5 -13 9 -29 9
-16 0 -34 7 -41 15 -15 18 -8 18 57 6 l42 -8 6 46 c3 25 8 54 10 64 2 14 -4
17 -35 17 -30 0 -77 21 -204 91 -92 51 -165 93 -164 94 2 2 39 -4 83 -11 44
-8 87 -13 95 -11 8 1 -36 11 -98 21 -106 18 -114 21 -128 47 -17 34 -18 34 77
10 129 -34 390 -93 394 -89 2 1 11 57 20 123 10 66 19 121 20 123 5 6 145 -31
145 -40 0 -5 4 -7 8 -4 5 3 6 -8 4 -25 -3 -22 -1 -29 9 -27 8 2 13 -2 12 -9
-2 -8 11 -10 38 -9 40 3 59 17 59 44 0 6 12 12 28 13 l27 1 -27 10 c-43 15
-33 23 24 21 52 -2 52 -1 -11 7 -35 5 -68 14 -72 21 -4 7 -16 9 -28 6 -11 -3
-38 -1 -60 5 -29 7 -40 16 -43 33 -4 18 -1 22 11 18 12 -3 12 -2 -1 7 -10 6
-18 19 -18 30 0 14 -12 21 -50 29 -62 13 -70 13 -47 0 9 -6 15 -14 12 -20 -4
-5 -15 -3 -28 5 -28 18 -53 -1 -30 -22 12 -12 17 -8 14 11 -1 4 8 2 19 -5 11
-7 20 -19 20 -26 0 -7 14 -15 30 -18 17 -4 30 -10 30 -14 0 -8 -211 38 -220
48 -3 2 1 7 8 9 7 3 19 11 26 19 8 8 21 14 28 14 10 0 9 -3 -2 -10 -9 -6 -10
-10 -3 -10 21 0 24 18 6 30 -14 9 -8 10 27 6 l45 -5 -42 12 c-23 7 -49 21 -58
32 -12 14 -18 16 -21 8 -8 -19 -37 -16 -30 2 4 11 -1 15 -19 15 -13 0 -26 -4
-29 -9 -3 -4 -41 0 -83 10 -82 20 -93 22 -93 15z"/>
<path d="M4425 3354 c-27 -7 -74 -13 -104 -12 -36 1 -57 -3 -65 -13 -6 -8 -18
-14 -26 -15 -8 0 -34 -4 -57 -7 -37 -6 -42 -5 -36 9 6 15 1 16 -37 10 -53 -8
-66 -16 -49 -27 10 -6 4 -10 -19 -15 -22 -5 -29 -10 -21 -15 19 -12 -7 -39
-40 -40 l-26 -1 25 -8 c16 -4 29 -3 35 5 6 6 17 10 25 8 12 -4 12 -3 1 5 -9 6
-10 12 -2 16 6 4 16 -2 23 -14 16 -25 27 -25 44 -2 8 10 13 12 14 5 0 -7 7
-13 16 -13 8 0 13 4 10 9 -6 10 26 21 62 21 12 0 22 5 22 11 0 7 -10 9 -26 5
-15 -4 -23 -3 -20 3 3 5 0 12 -6 14 -7 3 -1 6 14 6 14 1 34 4 44 8 14 5 16 2
12 -14 -8 -30 47 -41 75 -16 12 11 17 12 12 4 -5 -9 -4 -12 3 -7 12 7 5 37
-12 48 -6 4 14 8 45 8 30 0 60 5 66 11 5 5 32 12 58 14 26 2 50 6 53 9 10 11
-63 4 -113 -10z"/>
<path d="M900 3314 c121 -31 130 -35 131 -63 0 -14 3 -21 5 -15 5 12 88 8 115
-6 9 -6 25 -7 34 -4 15 6 55 -21 55 -37 0 -4 -28 -6 -62 -4 -53 3 -50 2 20 -7
45 -5 82 -14 82 -18 0 -4 -48 -6 -107 -5 -60 2 -91 1 -69 -2 l39 -4 -7 -67
c-3 -37 -9 -92 -12 -123 l-6 -56 33 -6 c19 -3 78 -11 131 -18 54 -6 95 -15 92
-20 -3 -5 9 -9 27 -9 61 0 16 -17 -142 -55 l-157 -38 -6 -45 c-10 -77 -9 -82
24 -82 43 0 37 -18 -7 -23 l-38 -4 38 -1 c36 -2 54 -22 20 -22 -15 0 -16 -2
-3 -10 8 -5 12 -12 8 -15 -3 -4 0 -18 8 -33 14 -27 14 -27 -24 -32 -36 -5 -37
-6 -39 -50 -2 -25 0 -40 2 -34 6 12 151 0 205 -17 94 -30 371 -157 295 -135
-11 3 -90 14 -175 25 -85 11 -195 26 -243 32 -48 6 -90 9 -93 6 -3 -3 -10 -50
-16 -106 l-11 -101 -46 -2 -46 -1 45 -6 c42 -6 45 -8 42 -33 l-3 -27 114 39
c108 38 231 62 197 39 -44 -29 -96 -49 -197 -73 -117 -29 -122 -33 -123 -92 0
-20 7 -23 68 -28 151 -13 444 -27 458 -22 8 3 24 2 37 -3 12 -5 88 -12 170
-15 l147 -8 0 39 c0 21 3 55 6 75 6 34 10 37 43 41 l36 4 -37 1 c-37 2 -38 3
-38 38 0 23 -6 42 -17 50 -17 12 -16 13 5 14 15 0 22 6 22 20 0 22 7 25 30 10
13 -8 13 -13 -3 -39 -17 -29 -17 -30 10 -51 24 -19 28 -19 42 -5 13 12 13 19
3 35 -16 26 -15 38 2 56 23 22 26 18 28 -38 l2 -53 3 48 c5 63 -7 77 -69 77
l-50 0 7 48 6 47 -58 2 c-98 2 -204 11 -210 16 -8 8 27 95 43 108 10 8 11 16
5 23 -8 9 7 11 57 10 37 -1 55 0 40 2 -26 5 -27 6 -13 28 11 16 26 23 51 24
20 1 44 7 53 14 14 12 15 11 2 -4 -7 -10 -12 -18 -10 -19 2 0 13 -3 24 -5 21
-5 38 -6 93 -4 33 1 36 20 3 20 -11 0 -21 9 -24 21 -5 20 -11 21 -53 15 -26
-3 -58 -6 -71 -6 -13 0 -22 -4 -19 -9 3 -4 -7 -6 -22 -3 -20 5 -22 7 -9 10 17
3 16 5 -4 23 -26 22 -21 23 68 10 l51 -7 6 35 c3 20 6 53 6 73 0 26 5 38 18
41 16 4 15 5 -1 6 -16 1 -18 8 -14 64 2 34 2 51 0 37 -6 -35 -20 -46 -27 -23
-6 17 -63 40 -113 45 -7 1 -13 6 -13 11 0 5 -8 3 -17 -4 -27 -22 -8 7 48 71
l47 55 -192 -63 c-171 -57 -195 -62 -231 -54 l-40 10 33 1 c48 2 176 35 322
83 l125 42 -70 18 -70 18 70 -6 c39 -2 89 -7 113 -11 34 -4 42 -2 42 11 0 12
-10 16 -37 16 -20 0 -34 3 -31 6 8 8 140 7 172 -2 22 -5 26 -3 26 15 0 12 -7
24 -15 27 -8 4 -15 12 -15 20 0 22 -27 16 -33 -7 -3 -12 0 -22 9 -25 40 -12
47 -15 43 -18 -2 -2 -33 1 -69 6 -36 5 -88 13 -117 17 -63 9 -85 25 -26 19 23
-2 39 0 37 4 -3 5 -20 8 -37 8 -18 0 -38 4 -46 9 -11 7 -10 11 7 20 11 6 33
12 49 12 26 2 26 2 4 6 -15 3 -20 8 -13 12 8 5 5 15 -9 33 -18 23 -24 25 -41
15 -15 -10 -20 -9 -28 3 -7 12 -12 12 -22 2 -6 -6 -23 -12 -36 -12 -27 0 -55
-24 -59 -50 -2 -14 2 -17 17 -13 11 3 20 10 20 15 0 5 -4 6 -10 3 -5 -3 -10
-2 -10 4 0 19 34 30 52 17 10 -7 15 -16 11 -19 -3 -4 2 -9 11 -13 23 -9 20
-32 -6 -37 -13 -2 -4 -5 20 -6 23 0 42 -5 42 -11 0 -13 1 -13 -165 5 -77 8
-169 17 -205 21 -36 3 -90 10 -120 17 l-55 11 45 7 45 6 -40 2 c-22 1 -49 6
-60 10 -19 8 -18 9 7 21 14 7 29 21 31 32 3 11 10 18 14 15 5 -3 15 -2 23 4
12 7 10 9 -9 9 -13 0 -30 8 -37 18 -11 14 -16 15 -33 5 -25 -16 -45 -17 -36
-3 3 6 -1 10 -9 10 -20 0 -31 -20 -16 -30 21 -13 -27 -23 -68 -14 -21 4 -52 8
-71 9 -46 2 -54 25 -9 26 30 1 29 2 -12 10 -25 4 -76 15 -115 23 -87 19 -120
19 -45 0z m453 -704 c40 0 48 -3 39 -12 -6 -6 -33 -12 -59 -12 l-48 1 43 -4
c31 -3 42 -8 39 -18 -4 -9 8 -16 34 -23 36 -9 43 -8 65 13 l24 23 -22 5 c-54
15 1 18 110 8 66 -7 133 -9 148 -5 28 6 28 6 9 -9 -11 -9 -29 -17 -40 -17
l-20 -1 20 -9 c14 -6 1 -9 -45 -11 -64 -1 -65 -2 -20 -9 25 -4 49 -5 53 -3 7
4 57 -45 57 -57 0 -3 -24 -4 -52 -3 -38 1 -45 0 -24 -5 16 -4 31 -12 33 -19 3
-8 -7 -9 -34 -3 -30 7 -376 40 -414 40 -5 0 -9 4 -9 9 0 5 10 7 23 5 12 -2 8
1 -10 7 -29 10 -30 14 -21 35 9 19 19 24 52 25 l41 2 -39 6 c-31 5 -40 11 -43
30 -3 22 -1 23 28 17 17 -3 54 -6 82 -6z m400 -626 c67 -36 129 -72 137 -80
12 -12 8 -14 -33 -14 -26 0 -47 4 -47 8 0 5 -33 8 -72 7 -60 -2 -64 -1 -23 4
l50 6 -65 8 c-36 5 -71 9 -77 10 -16 1 -18 117 -3 117 6 0 65 -30 133 -66z"/>
<path d="M2960 3179 c0 -7 -10 -9 -24 -5 -14 3 -27 2 -31 -3 -7 -13 -415 -12
-415 0 0 13 -34 11 -49 -3 -11 -11 -14 -10 -18 0 -4 10 -8 10 -19 1 -8 -6 -50
-10 -107 -10 l-94 1 6 -27 c5 -27 6 -27 9 -5 3 22 7 23 55 19 29 -2 63 -8 77
-12 19 -5 22 -4 10 4 -12 8 -8 11 19 11 29 0 32 -2 21 -15 -10 -13 -10 -19 4
-33 9 -10 16 -23 16 -28 0 -5 -12 5 -26 21 -14 17 -22 23 -18 15 15 -32 36
-48 55 -43 10 3 19 1 19 -5 0 -5 -51 -13 -112 -18 l-113 -8 64 -6 c66 -7 178
-4 220 5 23 6 24 5 9 -17 -17 -24 -21 -25 -125 -13 -42 4 -63 3 -63 -4 0 -6
23 -12 53 -12 28 -1 41 -3 27 -6 -96 -14 -88 -9 -87 -63 0 -27 3 -48 6 -47 3
1 16 -4 28 -11 19 -11 24 -8 47 20 18 24 22 35 13 41 -13 9 31 4 213 -24 182
-28 187 -29 165 -41 -18 -11 -266 -98 -275 -98 -3 1 7 8 23 16 45 24 34 38
-25 30 -77 -9 -87 -11 -95 -19 -3 -4 -23 7 -42 25 -35 32 -35 32 -11 3 14 -16
27 -32 30 -35 3 -3 15 -17 28 -31 l22 -26 -66 9 c-36 5 -67 8 -69 6 -1 -2 -5
-47 -9 -100 l-6 -98 30 0 c16 0 30 -4 30 -10 0 -9 -71 -15 -85 -7 -2 1 -10 -7
-18 -17 -9 -13 -21 -17 -36 -13 -11 3 -21 1 -21 -4 0 -13 58 -11 62 2 2 5 23
13 47 16 40 5 43 4 37 -14 -4 -12 -1 -25 9 -33 21 -17 19 -28 -7 -33 -13 -2
-1 -5 25 -6 29 0 46 -5 42 -11 -3 -5 -1 -10 4 -10 6 0 11 4 11 9 0 6 15 12 33
14 24 3 21 4 -15 5 -51 2 -64 18 -23 28 14 3 25 10 25 15 0 15 120 11 136 -5
14 -15 41 -12 83 10 22 12 23 14 7 20 -14 5 -15 9 -4 15 9 6 7 9 -9 9 -12 0
-24 4 -28 10 -3 5 48 8 135 6 77 -2 142 0 145 3 2 4 -6 8 -19 9 -21 1 -176 63
-340 135 -89 39 -92 34 39 86 75 29 115 35 131 18 4 -3 28 12 55 34 l48 40 63
-15 c35 -8 96 -26 137 -41 41 -14 76 -25 78 -25 2 0 3 27 3 61 0 53 -2 60 -17
55 -10 -2 -45 -7 -78 -10 l-60 -5 78 25 77 25 0 49 0 50 73 2 c59 1 48 3 -60
11 -126 9 -176 22 -97 25 60 2 52 12 -9 12 -60 0 -70 7 -36 28 14 9 18 19 13
34 -4 15 -3 18 6 13 9 -6 9 -3 1 14 -12 22 -41 29 -41 10z m-350 -39 l-25 -7
29 -12 c41 -17 81 -11 80 12 -2 15 10 17 120 16 66 -1 113 -3 104 -6 -23 -6
-23 -29 -1 -42 10 -5 16 -12 13 -15 -3 -2 -78 -6 -168 -8 -115 -2 -162 0 -162
8 0 6 -7 18 -17 25 -15 13 -15 12 -1 -15 l15 -29 192 2 c130 2 191 -1 191 -8
0 -6 -9 -11 -19 -11 -11 0 -22 -4 -25 -9 -4 -5 -39 -31 -78 -57 l-72 -47 44
-20 c25 -10 56 -23 70 -29 l25 -10 -24 -11 c-19 -9 -42 -5 -124 24 -82 27
-113 44 -164 87 -35 30 -61 58 -58 63 4 5 -14 9 -39 9 -50 0 -63 16 -18 23 20
3 17 4 -13 6 l-40 2 28 17 c15 9 25 22 23 28 -8 20 5 24 73 23 47 -1 59 -3 41
-9z"/>
<path d="M6075 2561 c-32 -5 -36 -8 -18 -12 17 -6 22 -16 26 -60 2 -30 12 -91
21 -136 17 -81 17 -82 -5 -125 -17 -33 -18 -40 -5 -29 9 7 16 21 16 30 1 42
20 -21 33 -114 42 -278 70 -450 73 -454 12 -13 6 32 -37 311 l-48 308 44 92
c24 51 40 95 36 98 -4 3 -12 18 -18 35 -8 26 -15 30 -49 31 -58 1 -61 3 -34
19 27 15 26 15 -35 6z"/>
<path d="M1905 2444 c22 -3 51 -7 65 -11 l25 -6 -25 -7 c-21 -7 -19 -8 15 -9
71 -2 87 -10 80 -40 -4 -19 0 -34 15 -51 11 -12 20 -31 20 -41 0 -10 5 -21 11
-25 7 -4 10 3 7 22 -2 17 2 29 11 32 10 3 12 -5 9 -37 -5 -54 8 -53 15 2 3 23
9 57 13 75 4 20 2 38 -6 47 -15 18 -5 22 55 28 22 2 10 3 -27 3 -55 -1 -68 2
-69 14 0 10 -2 11 -6 3 -2 -7 -13 -13 -24 -13 -10 0 -19 -5 -19 -10 0 -6 -6
-5 -14 2 -8 7 -13 15 -11 18 2 3 -38 6 -89 6 -50 1 -73 0 -51 -2z"/>
<path d="M5988 1883 c-10 -2 -21 -17 -24 -31 -3 -15 -8 -33 -10 -41 -2 -7 0
-30 6 -51 9 -32 15 -39 43 -44 18 -3 46 -2 63 3 29 8 30 8 26 -20 -3 -18 0
-29 7 -29 9 0 10 19 7 65 -3 36 -1 65 4 65 13 0 5 34 -15 64 -14 21 -25 26
-54 25 -20 -1 -44 -3 -53 -6z"/>
<path d="M3236 1698 c-12 -45 -7 -108 9 -114 18 -7 20 -70 3 -77 -10 -4 -10
-6 0 -6 8 -1 12 -17 12 -46 0 -25 3 -45 8 -45 4 0 6 18 6 40 -2 28 3 43 15 50
15 9 14 9 -2 10 -13 0 -17 7 -15 30 1 17 8 30 15 30 7 0 13 5 13 11 0 5 4 8 9
5 10 -7 21 17 21 45 0 21 16 26 23 7 2 -7 4 -1 3 14 0 16 -4 28 -8 28 -4 0
-10 9 -13 20 -5 16 -15 20 -50 20 -36 0 -44 -4 -49 -22z"/>
<path d="M6183 1597 c-29 -6 -43 -15 -43 -26 0 -13 2 -13 9 -2 5 8 14 10 21 6
9 -6 6 -13 -11 -26 -20 -15 -21 -19 -6 -19 10 0 17 -8 17 -20 0 -12 14 -28 39
-42 37 -21 39 -25 46 -85 4 -35 11 -63 16 -63 6 0 8 8 5 18 -2 9 -8 40 -11 69
-6 46 -4 53 14 65 13 8 21 23 21 40 0 27 2 28 53 30 l52 1 -60 6 c-45 5 -61
10 -63 23 -2 13 6 18 35 21 33 3 31 4 -14 5 -28 1 -57 4 -65 6 -7 2 -32 -1
-55 -7z"/>
</g>
</svg>
